<svg xmlns="http://www.w3.org/2000/svg" width="178" height="31" viewBox="0 0 178 31">
  <g id="Group_1211" data-name="Group 1211" transform="translate(-21 -5955)">
    <circle id="Ellipse_10" data-name="Ellipse 10" cx="15.5" cy="15.5" r="15.5" transform="translate(119 5955)" fill="#fff" opacity="0.89"/>
    <circle id="Ellipse_75" data-name="Ellipse 75" cx="15.5" cy="15.5" r="15.5" transform="translate(168 5955)" fill="#fff" opacity="0.89"/>
    <g id="Group_1209" data-name="Group 1209" transform="translate(-198 5796)">
      <path id="Path_33" data-name="Path 33" d="M15.5,0A15.5,15.5,0,1,1,0,15.5,15.5,15.5,0,0,1,15.5,0Z" transform="translate(268 159)" fill="#fff" opacity="0.89"/>
      <path id="Icon_material-share" data-name="Icon material-share" d="M12.8,10.795a1.612,1.612,0,0,0-1.085.426l-3.947-2.3a1.532,1.532,0,0,0,0-.775l3.9-2.275a1.657,1.657,0,1,0-.531-1.212,1.812,1.812,0,0,0,.05.388L7.29,7.324a1.661,1.661,0,1,0,0,2.425l3.942,2.3a1.562,1.562,0,0,0-.044.36A1.617,1.617,0,1,0,12.8,10.795Z" transform="translate(273.3 166.412)" fill="#292929"/>
    </g>
    <g id="Group_1210" data-name="Group 1210" transform="translate(-247 5796)">
      <path id="Path_33-2" data-name="Path 33" d="M15.5,0A15.5,15.5,0,1,1,0,15.5,15.5,15.5,0,0,1,15.5,0Z" transform="translate(268 159)" fill="#fe7711" opacity="0.89"/>
      <path id="Icon_awesome-map-marker-alt" data-name="Icon awesome-map-marker-alt" d="M4.318,12.575C.676,7.3,0,6.753,0,4.813a4.813,4.813,0,1,1,9.626,0c0,1.94-.676,2.482-4.318,7.762a.6.6,0,0,1-.989,0Zm.495-5.757A2.005,2.005,0,1,0,2.807,4.813,2.005,2.005,0,0,0,4.813,6.818Z" transform="translate(278.407 167.79)" fill="#fff"/>
    </g>
    <path id="Icon_ionic-ios-heart" data-name="Icon ionic-ios-heart" d="M12.366,3.938h-.03a3.365,3.365,0,0,0-2.81,1.538,3.365,3.365,0,0,0-2.81-1.538h-.03A3.344,3.344,0,0,0,3.375,7.28,7.2,7.2,0,0,0,4.789,11.2a24.775,24.775,0,0,0,4.738,4.564A24.775,24.775,0,0,0,14.265,11.2,7.2,7.2,0,0,0,15.679,7.28,3.344,3.344,0,0,0,12.366,3.938Z" transform="translate(125.125 5960.563)" fill="rgba(0,0,0,0)" stroke="#292929" stroke-width="1"/>
    <path id="Icon_ionic-ios-heart-2" data-name="Icon ionic-ios-heart" d="M12.366,3.938h-.03a3.365,3.365,0,0,0-2.81,1.538,3.365,3.365,0,0,0-2.81-1.538h-.03A3.344,3.344,0,0,0,3.375,7.28,7.2,7.2,0,0,0,4.789,11.2a24.775,24.775,0,0,0,4.738,4.564A24.775,24.775,0,0,0,14.265,11.2,7.2,7.2,0,0,0,15.679,7.28,3.344,3.344,0,0,0,12.366,3.938Z" transform="translate(174.125 5960.563)" fill="#f0034e" stroke="#f0034e" stroke-width="1"/>
  </g>
</svg>
