<svg xmlns="http://www.w3.org/2000/svg" width="33" height="240" viewBox="0 0 33 240">
  <g id="Group_1205" data-name="Group 1205" transform="translate(-30 -9505)">
    <g id="Group_1201" data-name="Group 1201">
      <g id="Rectangle_134" data-name="Rectangle 134" transform="translate(30 9505)" fill="rgba(255,255,255,0)" stroke="#707070" stroke-width="1" opacity="0.5">
        <rect width="33" height="33" rx="16.5" stroke="none"/>
        <rect x="0.5" y="0.5" width="32" height="32" rx="16" fill="none"/>
      </g>
      <path id="Icon_material-phone-in-talk" data-name="Icon material-phone-in-talk" d="M16.883,13.605a8.275,8.275,0,0,1-2.6-.415.743.743,0,0,0-.743.175l-1.6,1.6a10.959,10.959,0,0,1-4.8-4.8l1.6-1.61a.7.7,0,0,0,.182-.728,8.275,8.275,0,0,1-.415-2.6A.731.731,0,0,0,7.778,4.5H5.228a.731.731,0,0,0-.728.728A12.382,12.382,0,0,0,16.883,17.611a.731.731,0,0,0,.728-.728V14.333A.731.731,0,0,0,16.883,13.605Zm-.728-2.549h1.457A6.556,6.556,0,0,0,11.056,4.5V5.957A5.1,5.1,0,0,1,16.155,11.056Zm-2.914,0H14.7a3.643,3.643,0,0,0-3.642-3.642V8.87A2.182,2.182,0,0,1,13.241,11.056Z" transform="translate(35.161 9510.661)" fill="#fe7711"/>
    </g>
    <g id="Group_1202" data-name="Group 1202">
      <g id="Rectangle_135" data-name="Rectangle 135" transform="translate(30 9574)" fill="rgba(255,255,255,0)" stroke="#707070" stroke-width="1" opacity="0.5">
        <rect width="33" height="33" rx="16.5" stroke="none"/>
        <rect x="0.5" y="0.5" width="32" height="32" rx="16" fill="none"/>
      </g>
      <path id="Icon_ionic-logo-whatsapp" data-name="Icon ionic-logo-whatsapp" d="M10.771,2.25A8.186,8.186,0,0,0,2.554,10.4a8.07,8.07,0,0,0,1.179,4.21L2.25,18.989,6.8,17.544a8.231,8.231,0,0,0,12.19-7.14A8.186,8.186,0,0,0,10.771,2.25ZM14.858,13.5a2.123,2.123,0,0,1-1.453.937c-.385.02-.4.3-2.5-.614a8.574,8.574,0,0,1-3.464-3.276,4.03,4.03,0,0,1-.775-2.184,2.328,2.328,0,0,1,.8-1.708.8.8,0,0,1,.569-.24c.165,0,.273,0,.4,0s.306-.026.465.4.54,1.463.588,1.569a.381.381,0,0,1,0,.365,1.427,1.427,0,0,1-.223.339c-.11.118-.231.263-.329.353s-.223.208-.108.421a6.288,6.288,0,0,0,1.113,1.485,5.733,5.733,0,0,0,1.648,1.1c.206.112.329.1.457-.035s.547-.588.695-.791.286-.163.476-.087,1.2.619,1.408.731.343.169.393.258A1.726,1.726,0,0,1,14.858,13.5Z" transform="translate(36.001 9579.468)" fill="#35b156"/>
    </g>
    <g id="Group_1203" data-name="Group 1203">
      <g id="Rectangle_136" data-name="Rectangle 136" transform="translate(30 9642)" fill="rgba(255,255,255,0)" stroke="#707070" stroke-width="1" opacity="0.5">
        <rect width="33" height="33" rx="16.5" stroke="none"/>
        <rect x="0.5" y="0.5" width="32" height="32" rx="16" fill="none"/>
      </g>
      <path id="Icon_ionic-md-mail-open" data-name="Icon ionic-md-mail-open" d="M17.071,9.054a1.376,1.376,0,0,0-.671-1.2L9.66,4.5,2.921,7.855a1.456,1.456,0,0,0-.671,1.2v6.738A1.416,1.416,0,0,0,3.661,17.2h12a1.416,1.416,0,0,0,1.411-1.412ZM9.66,12.44,3.991,8.735,9.66,5.912,15.33,8.735Z" transform="translate(36.807 9647.191)" fill="#00b2e3"/>
    </g>
    <g id="Group_1204" data-name="Group 1204">
      <g id="Rectangle_137" data-name="Rectangle 137" transform="translate(30 9712)" fill="rgba(255,255,255,0)" stroke="#707070" stroke-width="1" opacity="0.5">
        <rect width="33" height="33" rx="16.5" stroke="none"/>
        <rect x="0.5" y="0.5" width="32" height="32" rx="16" fill="none"/>
      </g>
      <path id="Icon_material-chat" data-name="Icon material-chat" d="M14.407,3H4.267A1.266,1.266,0,0,0,3.006,4.267L3,15.675,5.535,13.14h8.872a1.271,1.271,0,0,0,1.267-1.267v-7.6A1.271,1.271,0,0,0,14.407,3ZM5.535,7.436h7.6V8.7h-7.6ZM10.6,10.6H5.535V9.337H10.6ZM13.14,6.8h-7.6V5.535h7.6Z" transform="translate(37.99 9719.825)" fill="#fec711"/>
    </g>
  </g>
</svg>
