<svg xmlns="http://www.w3.org/2000/svg" width="37.815" height="34.777" viewBox="0 0 37.815 34.777">
  <g id="Group_290" data-name="Group 290" transform="translate(-4927.795 -1398)" opacity="0.3">
    <g id="Group_289" data-name="Group 289" transform="translate(4927.795 1398)">
      <path id="Path_929" data-name="Path 929" d="M6.809,6.935a6.939,6.939,0,0,0-3.195.727V19.627l2.461-.35a9.6,9.6,0,0,1,3.742,1.337c1.585.808,3.244,1.759,4.961,1.7a10.414,10.414,0,0,0,2.852-.739,111.212,111.212,0,0,0,12.78-6,2.475,2.475,0,0,0,1.275-3.024c-.394-.945-1.4-1.667-3.316-1.226-2.013.579-5.157,1.523-6.961,2.063a3.451,3.451,0,0,1-.141,1.55,3.756,3.756,0,0,1-2.129,2.445,3.189,3.189,0,0,1-2.567-.132c-1.378-.688-3.344-1.636-3.344-1.636a.9.9,0,0,1,.785-1.622s1.966.949,3.365,1.648a1.614,1.614,0,0,0,2.155-1.094,1.656,1.656,0,0,0-.574-2.082c-1.6-.983-3.292-1.876-4.839-2.667A30.382,30.382,0,0,0,7.451,7.008a4.919,4.919,0,0,0-.642-.074Z" transform="translate(5.98 12.43)" fill="#777"/>
      <path id="Path_930" data-name="Path 930" d="M3.5,6.66A2.713,2.713,0,0,0,.8,9.36V20.289a2.718,2.718,0,0,0,2.7,2.705H5.922a2.706,2.706,0,0,0,2.667-2.419V9.089A2.7,2.7,0,0,0,5.922,6.66Z" transform="translate(-0.796 11.783)" fill="#777"/>
      <path id="Path_931" data-name="Path 931" d="M8.049,1.242v8.63L9.214,8.707a.9.9,0,0,1,1.277,0l1.163,1.165V1.242Z" transform="translate(16.643 -1.242)" fill="#777"/>
      <path id="Path_932" data-name="Path 932" d="M8.216,1.242a2.712,2.712,0,0,0-2.7,2.7V17.45a2.713,2.713,0,0,0,2.7,2.7h15.45a2.719,2.719,0,0,0,2.707-2.7V3.94a2.718,2.718,0,0,0-2.707-2.7H19.545v10.8a.9.9,0,0,1-1.536.637l-2.067-2.06-2.062,2.06a.9.9,0,0,1-1.543-.637V1.242Z" transform="translate(10.553 -1.242)" fill="#777"/>
      <path id="Path_933" data-name="Path 933" d="M3.545,2.035a.9.9,0,0,0,0,1.8H9.854a.9.9,0,0,0,0-1.8Z" transform="translate(3.656 0.664)" fill="#777"/>
      <path id="Path_934" data-name="Path 934" d="M3.815,3.093a.9.9,0,1,0,0,1.8H9.22a.9.9,0,0,0,0-1.8Z" transform="translate(4.29 3.209)" fill="#777"/>
      <path id="Path_935" data-name="Path 935" d="M4.074,4.152a.9.9,0,0,0,0,1.8H8.582a.9.9,0,0,0,0-1.8Z" transform="translate(4.928 5.754)" fill="#777"/>
      <path id="Path_936" data-name="Path 936" d="M4.345,5.21a.9.9,0,1,0,0,1.8h3.6a.9.9,0,0,0,0-1.8Z" transform="translate(5.562 8.299)" fill="#777"/>
    </g>
  </g>
</svg>
