<svg xmlns="http://www.w3.org/2000/svg" width="31.295" height="34.777" viewBox="0 0 31.295 34.777">
  <g id="Group_285" data-name="Group 285" transform="translate(-4992.989 -1546)" opacity="0.3">
    <g id="Group_284" data-name="Group 284" transform="translate(4992.989 1546)">
      <path id="Path_928" data-name="Path 928" d="M25.019,4.742l14.744,7.332a.925.925,0,0,1,.521.881,34.431,34.431,0,0,1-4.728,16.186A29.787,29.787,0,0,1,25.1,39.278a.922.922,0,0,1-.962,0A30.124,30.124,0,0,1,13.681,29.141,35.21,35.21,0,0,1,8.993,12.915a.888.888,0,0,1,.521-.881l14.7-7.292a.816.816,0,0,1,.8,0ZM17.247,21.169a.911.911,0,1,1,1.4-1.162l3.886,4.527,9.616-8.774a.865.865,0,0,1,1.282.08.9.9,0,0,1-.08,1.282L23.016,26.5a.9.9,0,0,1-1.282-.12Z" transform="translate(-8.989 -4.636)" fill="#777" fill-rule="evenodd"/>
    </g>
  </g>
</svg>
