<svg xmlns="http://www.w3.org/2000/svg" width="34.781" height="34.777" viewBox="0 0 34.781 34.777">
  <g id="Group_293" data-name="Group 293" transform="translate(-0.999 -1)" opacity="0.3">
    <g id="Group_292" data-name="Group 292" transform="translate(0.999 1)">
      <path id="Path_938" data-name="Path 938" d="M34.582,18.389A5.8,5.8,0,0,1,35.1,16.58,5.1,5.1,0,0,0,35.614,13a5.547,5.547,0,0,0-2.643-2.655,6.1,6.1,0,0,1-1.5-1.113,5.463,5.463,0,0,1-.661-1.716,5.388,5.388,0,0,0-1.8-3.211,5.793,5.793,0,0,0-3.675-.626,6.186,6.186,0,0,1-1.959-.093A5.768,5.768,0,0,1,21.831,2.6,5.715,5.715,0,0,0,18.389,1a5.721,5.721,0,0,0-3.443,1.6,5.768,5.768,0,0,1-1.553.985,6.186,6.186,0,0,1-1.959.093A5.793,5.793,0,0,0,7.759,4.3a5.388,5.388,0,0,0-1.8,3.211A5.463,5.463,0,0,1,5.3,9.231a6.244,6.244,0,0,1-1.484,1.113A5.521,5.521,0,0,0,1.163,13a5.1,5.1,0,0,0,.51,3.582,5.8,5.8,0,0,1,.522,1.808A5.8,5.8,0,0,1,1.673,20.2a5.1,5.1,0,0,0-.51,3.582,5.547,5.547,0,0,0,2.643,2.655,6.1,6.1,0,0,1,1.5,1.113,5.463,5.463,0,0,1,.661,1.716,5.388,5.388,0,0,0,1.8,3.211,5.793,5.793,0,0,0,3.675.626,6.186,6.186,0,0,1,1.959.093,5.768,5.768,0,0,1,1.553.985,5.721,5.721,0,0,0,3.443,1.6,5.721,5.721,0,0,0,3.443-1.6,5.768,5.768,0,0,1,1.553-.985,6.186,6.186,0,0,1,1.959-.093,5.793,5.793,0,0,0,3.675-.626,5.388,5.388,0,0,0,1.8-3.211,5.463,5.463,0,0,1,.661-1.716,6.244,6.244,0,0,1,1.484-1.113,5.521,5.521,0,0,0,2.655-2.655,5.1,5.1,0,0,0-.51-3.582A5.779,5.779,0,0,1,34.582,18.389ZM11.435,13.752a2.318,2.318,0,1,1,2.318,2.318A2.325,2.325,0,0,1,11.435,13.752Zm4.474,11.024a1.151,1.151,0,0,1-1,.568,1.194,1.194,0,0,1-.591-.162,1.159,1.159,0,0,1-.406-1.588L20.869,12a1.159,1.159,0,0,1,1.994,1.182Zm7.118.568a2.318,2.318,0,1,1,2.318-2.318A2.325,2.325,0,0,1,23.026,25.344Z" transform="translate(-0.999 -1)" fill="#777"/>
    </g>
  </g>
</svg>
