<svg id="cancel" xmlns="http://www.w3.org/2000/svg" width="20" height="20" viewBox="0 0 20 20">
  <circle id="Ellipse_71" data-name="Ellipse 71" cx="10" cy="10" r="10" transform="translate(0 0)" fill="#e24c4b"/>
  <path id="Path_1065" data-name="Path 1065" d="M67.589,57.591a10.029,10.029,0,0,1-10,10,9.84,9.84,0,0,1-7.812-3.75,9.866,9.866,0,0,0,6.25,2.188,10.029,10.029,0,0,0,10-10,9.866,9.866,0,0,0-2.188-6.25A9.84,9.84,0,0,1,67.589,57.591Z" transform="translate(-47.59 -47.591)" fill="#d1403f"/>
  <path id="Path_1066" data-name="Path 1066" d="M126.74,126.74a.981.981,0,0,1-1.375,0l-3.187-3.187-3.187,3.187a.972.972,0,0,1-1.375-1.375l3.187-3.187-3.187-3.187a.972.972,0,1,1,1.375-1.375l3.187,3.187,3.187-3.187a.972.972,0,1,1,1.375,1.375l-3.187,3.187,3.187,3.187A.981.981,0,0,1,126.74,126.74Z" transform="translate(-112.178 -112.178)" fill="#fff"/>
</svg>
