<svg xmlns="http://www.w3.org/2000/svg" xmlns:xlink="http://www.w3.org/1999/xlink" width="50" height="50" viewBox="0 0 50 50">
  <defs>
    <clipPath id="clip-path">
      <rect id="Rectangle_185" data-name="Rectangle 185" width="50" height="50" transform="translate(-15230 -23312)" fill="#fff" stroke="#707070" stroke-width="1" opacity="0.4"/>
    </clipPath>
  </defs>
  <g id="Mask_Group_27" data-name="Mask Group 27" transform="translate(15230 23312)" clip-path="url(#clip-path)">
    <g id="Group_1228" data-name="Group 1228" transform="translate(-15235.378 -23313)">
      <path id="Path_1085" data-name="Path 1085" d="M46.178,54.415l-.018-.009a.9.9,0,0,1-.094-.047c-.025-.013-.051-.026-.074-.041a.866.866,0,0,1-.076-.06c-.023-.019-.047-.037-.068-.058s-.04-.045-.059-.068-.041-.047-.058-.072a.878.878,0,0,1-.045-.078c-.015-.027-.03-.053-.042-.08s-.02-.058-.03-.088-.019-.057-.026-.086-.008-.059-.012-.089a.961.961,0,0,1-.009-.1c0-.028,0-.056.005-.084a.922.922,0,0,1,.011-.106c0-.007,0-.013,0-.02a4.225,4.225,0,0,0,.035-1.517c-.268-1.911-.536-5.283-.8-8.545-.261-3.278-.531-6.667-.794-8.528-.394-2.608-2.4-4.819-4.378-4.819H25.359c-1.98,0-3.988,2.211-4.384,4.828-.26,1.84-.527,5.2-.786,8.458-.262,3.286-.532,6.684-.8,8.592a4.274,4.274,0,0,0,.013,1.42.01.01,0,0,0,0,0,.913.913,0,0,1,.014.173c0,.006,0,.011,0,.017a.964.964,0,0,1-.02.171s0,.01,0,.014a.938.938,0,0,1-.055.169s0,0,0,.005a.944.944,0,0,1-.2.29l-.008.01a1,1,0,0,1-.094.076c-.018.013-.034.029-.052.041s-.05.026-.076.04a.949.949,0,0,1-.094.048l-.007,0a1.917,1.917,0,0,0-1.31,1.735,2.073,2.073,0,0,0,2.2,1.9,2.237,2.237,0,0,0,2-1.115.946.946,0,0,1,.81-.505c.023,0,.045,0,.068,0s.044,0,.066,0,.053,0,.08,0a4.608,4.608,0,0,0,.718.054H41.631a5.091,5.091,0,0,0,.671-.044h0a.884.884,0,0,1,.121,0,.944.944,0,0,1,.918.7,2.242,2.242,0,0,0,1.967,1.056,2.068,2.068,0,0,0,2.2-1.9A1.93,1.93,0,0,0,46.178,54.415ZM34.2,49.915l-.325.092v1.6a.674.674,0,0,1-.651.69H31.658a.671.671,0,0,1-.651-.69V50.141L30.62,50.1a8,8,0,0,1-3.087-.952.7.7,0,0,1-.273-.879l.6-1.413a.678.678,0,0,1,.382-.373.66.66,0,0,1,.208-.037.613.613,0,0,1,.308.083,6.948,6.948,0,0,0,3.273.824c1.337,0,2.31-.58,2.31-1.376,0-.515-.282-1.137-2.362-1.854-2.253-.75-4.55-1.845-4.55-4.3,0-1.864,1.281-3.322,3.425-3.9l.325-.087V34.294a.673.673,0,0,1,.651-.686h1.541a.67.67,0,0,1,.651.686v1.385l.382.051a7.574,7.574,0,0,1,2.475.727.66.66,0,0,1,.334.391.705.705,0,0,1-.022.524l-.621,1.394a.657.657,0,0,1-.59.4.623.623,0,0,1-.269-.065,6.171,6.171,0,0,0-2.861-.653c-1.372,0-1.984.561-1.984,1.123,0,.626.638,1.049,2.635,1.749,2.127.736,4.3,1.845,4.3,4.514A4.369,4.369,0,0,1,34.2,49.915Z" transform="translate(-2.218 -13.418)" fill="none"/>
      <path id="Path_1086" data-name="Path 1086" d="M35.26,13.6H36.7v-.114a4.377,4.377,0,0,0-4.372-4.372H23.958v.114A4.376,4.376,0,0,0,28.33,13.6Z" transform="translate(-5.696 -2.218)" fill="none"/>
      <path id="Path_1087" data-name="Path 1087" d="M54.232,13.6h5.029a4.377,4.377,0,0,0,4.372-4.371V9.119H55.262a4.34,4.34,0,0,0-2.27.643,6.232,6.232,0,0,1,1.24,3.729Z" transform="translate(-21.327 -2.218)" fill="none"/>
      <rect id="Rectangle_184" data-name="Rectangle 184" width="12.592" height="1.012" transform="translate(23.988 13.453)" fill="none"/>
      <path id="Path_1088" data-name="Path 1088" d="M45.329,39.567a6.124,6.124,0,0,0-.047-1.447c-.258-1.841-.524-5.184-.782-8.417-.264-3.306-.536-6.725-.809-8.653-.472-3.124-2.7-5.734-5.209-6.32V13.261a6.278,6.278,0,0,0,5.726-6.245V6.637A1.639,1.639,0,0,0,42.571,5H33.935a6.231,6.231,0,0,0-3.651,1.182A6.231,6.231,0,0,0,26.633,5H18A1.64,1.64,0,0,0,16.36,6.637v.379a6.278,6.278,0,0,0,5.726,6.245V14.73c-2.511.589-4.737,3.2-5.211,6.329-.27,1.907-.54,5.3-.8,8.583-.259,3.257-.528,6.625-.788,8.467a6.292,6.292,0,0,0-.058,1.323A3.723,3.723,0,0,0,13.378,42.6a3.968,3.968,0,0,0,4.106,3.8A4.161,4.161,0,0,0,20.8,44.828c.139.009.278.016.422.016H39.412c.085,0,.169-.005.253-.008a4.184,4.184,0,0,0,3.424,1.713,3.963,3.963,0,0,0,4.1-3.8A3.729,3.729,0,0,0,45.329,39.567ZM23.988,13.453H36.581v1.012H23.988ZM33.935,6.9h8.371v.114a4.376,4.376,0,0,1-4.372,4.371H32.906v-.114a6.233,6.233,0,0,0-1.24-3.729A4.341,4.341,0,0,1,33.935,6.9Zm-15.673.114V6.9h8.371A4.377,4.377,0,0,1,31,11.273v.114H22.633A4.376,4.376,0,0,1,18.262,7.016ZM43.09,44.646a2.242,2.242,0,0,1-1.967-1.056.944.944,0,0,0-.918-.7.966.966,0,0,0-.121,0h0a5.092,5.092,0,0,1-.671.044H21.223a4.667,4.667,0,0,1-.718-.054c-.027,0-.053,0-.08,0s-.044,0-.066,0-.045,0-.068,0a.948.948,0,0,0-.81.506,2.237,2.237,0,0,1-2,1.115,2.073,2.073,0,0,1-2.2-1.9,1.918,1.918,0,0,1,1.31-1.735l.007,0a.859.859,0,0,0,.094-.048c.025-.013.052-.024.076-.04s.035-.028.052-.041a1,1,0,0,0,.094-.076l.008-.01a.961.961,0,0,0,.2-.29s0,0,0-.005a.938.938,0,0,0,.055-.169s0-.01,0-.014A.954.954,0,0,0,17.2,40c0-.006,0-.011,0-.017a.916.916,0,0,0-.014-.173.01.01,0,0,0,0,0,4.274,4.274,0,0,1-.013-1.42c.27-1.908.54-5.306.8-8.592.259-3.254.527-6.618.786-8.458.4-2.617,2.4-4.828,4.384-4.828H37.432c1.978,0,3.983,2.211,4.378,4.819.263,1.861.534,5.25.794,8.528.26,3.261.529,6.633.8,8.545a4.225,4.225,0,0,1-.035,1.517c0,.007,0,.013,0,.02a1.013,1.013,0,0,0-.011.106c0,.028-.006.056-.005.084s.006.064.009.1.006.06.012.089.017.058.026.086a.853.853,0,0,0,.03.088c.012.028.028.054.042.08s.028.054.045.078a.858.858,0,0,0,.058.072c.019.023.037.047.059.068s.045.039.068.058a.959.959,0,0,0,.076.06c.024.015.049.028.074.041a1,1,0,0,0,.094.047l.018.009a1.928,1.928,0,0,1,1.329,1.751A2.068,2.068,0,0,1,43.09,44.646Z" transform="translate(0)" fill="#b2b2b2"/>
      <path id="Path_1089" data-name="Path 1089" d="M44.821,45.614c-2-.7-2.636-1.123-2.636-1.749,0-.561.612-1.123,1.984-1.123a6.177,6.177,0,0,1,2.861.653.625.625,0,0,0,.269.065.657.657,0,0,0,.59-.4l.621-1.394a.705.705,0,0,0,.022-.524.661.661,0,0,0-.334-.391,7.571,7.571,0,0,0-2.475-.727l-.382-.051V38.593a.67.67,0,0,0-.651-.686H43.149a.673.673,0,0,0-.651.686v1.541l-.325.087c-2.145.575-3.425,2.034-3.425,3.9,0,2.457,2.3,3.552,4.55,4.3,2.08.718,2.362,1.339,2.362,1.854,0,.8-.973,1.376-2.31,1.376a6.948,6.948,0,0,1-3.273-.824.608.608,0,0,0-.308-.083.658.658,0,0,0-.208.037.68.68,0,0,0-.382.373l-.6,1.413a.705.705,0,0,0,.273.879,8,8,0,0,0,3.087.952l.386.042V55.9a.671.671,0,0,0,.651.69h1.567a.674.674,0,0,0,.651-.69v-1.6l.325-.092a4.367,4.367,0,0,0,3.6-4.086C49.119,47.459,46.948,46.35,44.821,45.614Z" transform="translate(-13.536 -17.716)" fill="#b2b2b2"/>
    </g>
  </g>
</svg>
