<svg xmlns="http://www.w3.org/2000/svg" xmlns:xlink="http://www.w3.org/1999/xlink" width="50" height="50" viewBox="0 0 50 50">
  <defs>
    <clipPath id="clip-path">
      <rect id="Rectangle_181" data-name="Rectangle 181" width="50" height="50" transform="translate(-15295 -23394)" fill="#fff" stroke="#707070" stroke-width="1" opacity="0.4"/>
    </clipPath>
  </defs>
  <g id="Mask_Group_24" data-name="Mask Group 24" transform="translate(15295 23394)" clip-path="url(#clip-path)">
    <g id="museum" transform="translate(-15293 -23391.998)">
      <path id="Path_969" data-name="Path 969" d="M246.883,119.766a.883.883,0,1,0-.624-.259A.89.89,0,0,0,246.883,119.766Zm0,0" transform="translate(-224.276 -107.58)" fill="#bcbcbc"/>
      <path id="Path_970" data-name="Path 970" d="M44.331,39.915h-1.06V37.265a.883.883,0,0,0-.883-.883h-.53v-1.4a2.314,2.314,0,0,0-1.413-2.129V29.877a.883.883,0,1,0-1.766,0v2.8H36.913V20.133h1.766v2.857a.883.883,0,0,0,1.766,0V19.952a2.315,2.315,0,0,0,1.413-2.129v-1.4h.53a.883.883,0,0,0,.883-.883V12.186h.088a.883.883,0,0,0,.4-1.672L23,.093a.883.883,0,0,0-.793,0L1.458,10.513a.883.883,0,0,0,.4,1.672h.088v3.356a.883.883,0,0,0,.883.883h.53v1.4a2.314,2.314,0,0,0,1.413,2.129v12.9a2.314,2.314,0,0,0-1.413,2.129v1.4h-.53a.883.883,0,0,0-.883.883v2.649H.883A.883.883,0,0,0,0,40.8V44.33a.883.883,0,0,0,.883.883H44.331a.883.883,0,0,0,.883-.883V40.8A.883.883,0,0,0,44.331,39.915Zm-4.783-5.475a.545.545,0,0,1,.545.545v1.4H35.5v-1.4a.545.545,0,0,1,.545-.545Zm-7.815,1.943v-1.4a2.315,2.315,0,0,0-1.413-2.129v-12.9a2.315,2.315,0,0,0,1.413-2.129v-1.4h2v1.4a2.314,2.314,0,0,0,1.413,2.129v12.9a2.314,2.314,0,0,0-1.413,2.129v1.4Zm-10.126,0v-1.4a2.315,2.315,0,0,0-1.413-2.129v-12.9a2.315,2.315,0,0,0,1.413-2.129v-1.4h2v1.4a2.314,2.314,0,0,0,1.413,2.129v12.9a2.314,2.314,0,0,0-1.413,2.129v1.4Zm-10.126,0v-1.4a2.314,2.314,0,0,0-1.413-2.129v-12.9a2.315,2.315,0,0,0,1.413-2.129v-1.4h2v1.4a2.314,2.314,0,0,0,1.413,2.129v12.9a2.314,2.314,0,0,0-1.413,2.129v1.4ZM6.535,20.133H8.3v12.54H6.535Zm10.126,0h1.766v12.54H16.661Zm3.179-2.311a.545.545,0,0,1-.545.545h-3.5a.545.545,0,0,1-.545-.545v-1.4H19.84v1.4ZM15.248,34.984a.545.545,0,0,1,.545-.545h3.5a.545.545,0,0,1,.545.545v1.4H15.248ZM26.787,20.133h1.766v12.54H26.787Zm3.179-2.311a.545.545,0,0,1-.545.545h-3.5a.545.545,0,0,1-.545-.545v-1.4h4.592ZM25.374,34.984a.545.545,0,0,1,.545-.545h3.5a.545.545,0,0,1,.545.545v1.4H25.374v-1.4ZM40.092,17.823a.545.545,0,0,1-.545.545h-3.5a.545.545,0,0,1-.544-.545v-1.4h4.592ZM18.221,12.186a.883.883,0,0,0,0-1.766H5.581L22.607,1.87,39.633,10.42H27.287a.883.883,0,0,0,0,1.766H41.505v2.473H3.709V12.186ZM9.714,16.425v1.4a.545.545,0,0,1-.545.545h-3.5a.545.545,0,0,1-.545-.545v-1.4ZM5.122,34.984a.545.545,0,0,1,.545-.545h3.5a.545.545,0,0,1,.544.545v1.4H5.122ZM3.709,38.148h37.8v1.766H3.709Zm39.739,5.3H1.766V41.681H43.448Zm0,0" transform="translate(0)" fill="#bcbcbc"/>
      <path id="Path_971" data-name="Path 971" d="M438.883,289a.883.883,0,1,0,.624.259A.89.89,0,0,0,438.883,289Zm0,0" transform="translate(-399.321 -263.48)" fill="#bcbcbc"/>
    </g>
  </g>
</svg>
