<svg xmlns="http://www.w3.org/2000/svg" xmlns:xlink="http://www.w3.org/1999/xlink" width="50" height="50" viewBox="0 0 50 50">
  <defs>
    <clipPath id="clip-path">
      <rect id="Rectangle_190" data-name="Rectangle 190" width="50" height="50" transform="translate(-15292 -23462)" fill="#fff" stroke="#707070" stroke-width="1" opacity="0.4"/>
    </clipPath>
  </defs>
  <g id="Mask_Group_32" data-name="Mask Group 32" transform="translate(15292 23462)" clip-path="url(#clip-path)">
    <g id="Group_1231" data-name="Group 1231" transform="translate(-15294.604 -23466.115)">
      <path id="Path_1094" data-name="Path 1094" d="M57.49,38.881l.935-1.664,1.9-.173a.4.4,0,0,0,.257-.667l-1.294-1.4.423-1.862a.4.4,0,0,0-.555-.451l-1.735.8-1.64-.978a.4.4,0,0,0-.6.389l.222,1.9-1.437,1.257a.4.4,0,0,0,.184.691l1.872.375.752,1.755A.4.4,0,0,0,57.49,38.881Z" transform="translate(-24.63 -12.331)" fill="#bcbcbc"/>
      <path id="Path_1095" data-name="Path 1095" d="M49.315,20.229l-.539-.833a.743.743,0,0,0-1.027-.221.413.413,0,0,1-.568-.121.4.4,0,0,1-.055-.3.41.41,0,0,1,.177-.258.743.743,0,0,0,.219-1.028L46.238,15.48a.743.743,0,0,0-1.026-.221.409.409,0,1,1-.443-.688.743.743,0,0,0,.217-1.025L43.7,11.56a.743.743,0,0,0-1.026-.221.409.409,0,0,1-.567-.123.4.4,0,0,1-.056-.3.406.406,0,0,1,.176-.258.743.743,0,0,0,.22-1.027L41.908,8.8a1.793,1.793,0,0,0-2.482-.533l-21.612,14a1.8,1.8,0,0,0-.526,2.48l1.039,1.6a9.966,9.966,0,0,0-3.294,3.8L9.677,39.053c-.011.018-.021.037-.031.056A3.472,3.472,0,0,1,8.6,40.358L5.3,42.828a.744.744,0,1,0,.889,1.192l3.305-2.469c.016-.012.031-.027.047-.04l.987.784a.62.62,0,0,0,.77-.971l-.872-.692a4.913,4.913,0,0,0,.54-.839l5.359-8.908c.011-.018.021-.038.031-.057a8.484,8.484,0,0,1,2.828-3.27l.105-.072c.677,1.013,1.529,2.244,1.953,2.854a1.048,1.048,0,0,0-.008.946,1.226,1.226,0,0,0,1.378.722l.067-.021,1.157-.379c.313-.093.586-.185.837-.284a7.066,7.066,0,0,0,1.04-.514l3.575-2.139a1.083,1.083,0,0,1,1.268,1.746l-7.394,6.524-1.2,1.1a9.383,9.383,0,0,1-4.374,2.27.619.619,0,0,0,.13,1.225.63.63,0,0,0,.131-.014A10.618,10.618,0,0,0,22.8,38.955l1.189-1.093,1.379-1.217a1.581,1.581,0,0,0,1.174.189,2.1,2.1,0,0,0,.635.544l-.471.211a2.082,2.082,0,0,0-.942,2.79c.01.02.022.038.033.057L24.722,41.57a5.924,5.924,0,0,1-2.573,1.65l-.436.131a8.906,8.906,0,0,0-2.657,1.131,5.715,5.715,0,0,0-1.573,1.748l-2.948-2.34a.62.62,0,0,0-.771.971l3.055,2.424c-.268.41-.549.812-.8,1.164a.744.744,0,0,0,1.2.872c.333-.46.717-1,1.063-1.557l.162-.265a5.488,5.488,0,0,1,1.443-1.786,7.513,7.513,0,0,1,2.249-.939l.448-.134a7.458,7.458,0,0,0,3.2-2.029L26.832,41.5a2.229,2.229,0,0,0,.809.158,2.135,2.135,0,0,0,.946-.218l2.138-.958a2.2,2.2,0,0,0,.424-3.675l.247-.135a2.454,2.454,0,0,0,1.287-2.155,2.5,2.5,0,0,0-.3-1.183L48.786,22.715A1.8,1.8,0,0,0,49.315,20.229ZM30.426,38.74a.7.7,0,0,1-.337.4l-2.138.958a.726.726,0,0,1-.772-.084.742.742,0,0,0-.271-.137c-.01-.017-.024-.032-.033-.05a.841.841,0,0,1-.044-.644.831.831,0,0,1,.4-.476l1.575-.7a.729.729,0,0,0,.423-.055l.191-.085a.721.721,0,0,1,1,.875Zm.258-3.369-.776.423a.71.71,0,0,0-.128.089c-.007,0-.015,0-.023.006l-.725.353-.028.01-.076.032-.095.038,0,.008a1.044,1.044,0,0,0-.109.076.612.612,0,0,0-.141.005,1.092,1.092,0,0,1-1.074-.349l-.032-.056a1.091,1.091,0,0,1,.5-1.472l1.663-.823a.634.634,0,0,0,.07-.055.57.57,0,0,0,.082-.007l.428-.127a1.113,1.113,0,0,1,.69.185.745.745,0,0,0,.114.271c.018.027.037.056.046.072a.966.966,0,0,1-.389,1.322Zm17.294-13.9-3.132,2.028-.092-.142a.5.5,0,1,0-.832.539l.092.142L31.071,32.414a2.35,2.35,0,0,0-.757-.131l1.059-.934a2.322,2.322,0,0,0-2.721-3.74l-3.576,2.139a5.907,5.907,0,0,1-.86.425c-.215.085-.454.166-.748.253l-.557.183-.373-.575c-.018-.026-1.851-2.653-2.722-4,0,0-.007-.006-.009-.009a.736.736,0,0,0-.111-.306l-1.158-1.786a.309.309,0,0,1,.088-.426L36.272,12.079l.178.276a.5.5,0,0,0,.832-.539l-.178-.275,3.132-2.028a.307.307,0,0,1,.426.092l.217.336a1.9,1.9,0,0,0,1.9,2.924l.644,1a1.892,1.892,0,0,0,1.893,2.924l.643.994A1.894,1.894,0,0,0,47.849,20.7l.218.337A.309.309,0,0,1,47.978,21.467Z" transform="translate(0 0)" fill="#bcbcbc"/>
      <path id="Path_1096" data-name="Path 1096" d="M75.67,25.468a.5.5,0,0,0-.832.539l1.068,1.648a.5.5,0,1,0,.832-.539Z" transform="translate(-35.186 -8.709)" fill="#bcbcbc"/>
      <path id="Path_1097" data-name="Path 1097" d="M71.363,18.818a.5.5,0,1,0-.833.538L71.6,21a.5.5,0,0,0,.833-.538Z" transform="translate(-33.013 -5.354)" fill="#bcbcbc"/>
      <path id="Path_1098" data-name="Path 1098" d="M79.977,32.12a.5.5,0,0,0-.832.539l1.068,1.648a.5.5,0,1,0,.832-.539Z" transform="translate(-37.359 -12.064)" fill="#bcbcbc"/>
      <path id="Path_1099" data-name="Path 1099" d="M19.388,77.273a.62.62,0,0,0-.769.972l.507.4a.619.619,0,0,0,.77-.97Z" transform="translate(-6.751 -34.886)" fill="#bcbcbc"/>
      <path id="Path_1100" data-name="Path 1100" d="M49.862,32.411A4.938,4.938,0,0,1,54.241,27.5a.5.5,0,0,0-.111-.984,5.936,5.936,0,0,0-3.871,9.711.5.5,0,0,0,.759-.637A4.947,4.947,0,0,1,49.862,32.411Z" transform="translate(-22.128 -9.348)" fill="#bcbcbc"/>
      <path id="Path_1101" data-name="Path 1101" d="M62.4,27.632c.113.022.223.049.332.078a.5.5,0,0,0,.26-.957c-.13-.035-.262-.066-.4-.093a.5.5,0,0,0-.2.972Z" transform="translate(-28.753 -9.42)" fill="#bcbcbc"/>
      <path id="Path_1102" data-name="Path 1102" d="M64.045,28.365a.5.5,0,0,0-.551.824,4.946,4.946,0,0,1-2.376,9.047.5.5,0,0,0,.036.99h.037a5.936,5.936,0,0,0,2.855-10.859Z" transform="translate(-28.074 -10.242)" fill="#bcbcbc"/>
    </g>
  </g>
</svg>
