<svg xmlns="http://www.w3.org/2000/svg" xmlns:xlink="http://www.w3.org/1999/xlink" width="50" height="50" viewBox="0 0 50 50">
  <defs>
    <clipPath id="clip-path">
      <rect id="Rectangle_186" data-name="Rectangle 186" width="50" height="50" transform="translate(-15310 -23309)" fill="#fff" stroke="#707070" stroke-width="1" opacity="0.4"/>
    </clipPath>
  </defs>
  <g id="Mask_Group_28" data-name="Mask Group 28" transform="translate(15310 23309)" clip-path="url(#clip-path)">
    <path id="Path_1090" data-name="Path 1090" d="M46.4,44c-.381-2.806-.949-12.283-1.571-13.511-.051-.1-5.793-10.422-7.44-11.251a4.522,4.522,0,0,0-2.837.143v-2.93a1.968,1.968,0,0,0-1.965-1.965H7.652a1.968,1.968,0,0,0-1.965,1.965V32.5a1.968,1.968,0,0,0,1.965,1.965h6.521a2,2,0,0,0,.15,1.3,4.1,4.1,0,0,0,3.352,2.6,4.623,4.623,0,0,0,2.078-.634,3.684,3.684,0,0,0,3.089,1.1,4.727,4.727,0,0,0,2.379-.654,17.892,17.892,0,0,0,1.409,3.806c.6,1.162,5.649,4.352,6.239,4.773a.919.919,0,0,0,1.067-1.5c-.632-.451-5.3-3.4-5.674-4.123a21.8,21.8,0,0,1-1.876-6.382c-.155-.862-.3-1.676-.494-2.388-.311-1.148-2.665-6.9-2.909-7.827a1.351,1.351,0,0,1,.374-1.523,1.791,1.791,0,0,1,1.959.041,7.33,7.33,0,0,1,2.794,3.1c.208.5,1.795,5.618,2.435,6.485a6.73,6.73,0,0,0,2.333,1.413l.062,0a6.755,6.755,0,0,1,2.017,1.609A.689.689,0,0,0,36.1,34.9a6.083,6.083,0,0,0-2.205-1.914c.309-1.338,2.526-3.524,3.657-4.165a.919.919,0,1,0-.906-1.6,9.673,9.673,0,0,0-1.392,1.034,11.047,11.047,0,0,1,1.192-4.867.891.891,0,0,0-.469-1.212c-.841-.279-1.35.8-1.418.959V21.306a7.348,7.348,0,0,1,2.019-.408c1.144.951,6.121,9.446,6.618,10.425.45.888,1,10.054,1.389,12.928a.919.919,0,0,0,.909.795.962.962,0,0,0,.125-.008A.921.921,0,0,0,46.4,44ZM17.8,36.522c-.881.125-1.63-1.124-1.761-1.417.367-.176.946-.423,1.473-.635H18.92l-.308.23c-.712.5-.227,1.288-.056,1.6A2.772,2.772,0,0,1,17.8,36.522Zm4.2.358a3,3,0,0,1-1.65-1.18L22,34.469h2.467c.038.2.252,1.386.33,1.787A3.016,3.016,0,0,1,22,36.88Zm8.59-9.1c-.278-.9-.54-1.741-.781-2.321a9.134,9.134,0,0,0-3.482-3.932,3.638,3.638,0,0,0-4.041,0A3.129,3.129,0,0,0,21.2,25.018c.274,1.04,2.545,6.594,2.846,7.613H7.652a.13.13,0,0,1-.127-.127V16.453a.13.13,0,0,1,.127-.127H32.589a.13.13,0,0,1,.127.127V31.134c0,.006-.25.463-.351.686C31.935,31.726,31.022,29.191,30.585,27.783ZM17.227,18.47H11.679a2.047,2.047,0,0,0-2.045,2.045v5.548a2.047,2.047,0,0,0,2.045,2.045h5.548a2.047,2.047,0,0,0,2.045-2.045V20.515A2.047,2.047,0,0,0,17.227,18.47Zm1.126,2.045v3.08H17.39V22.187a.23.23,0,0,0-.23-.23h-.766V20.349h.479a.23.23,0,0,0,.23-.23v-.73h.125A1.127,1.127,0,0,1,18.353,20.515Zm-5.845-1.126h2.01v2.758a1.122,1.122,0,0,0-1.2,1.27l-.809-1.378Zm3.427.73v1.838h-.957V19.389h1.666v.5h-.479A.23.23,0,0,0,15.935,20.12Zm-.793,3.17a.689.689,0,1,1-.689-.689A.69.69,0,0,1,15.142,23.29Zm-1.572.726a1.131,1.131,0,0,0,1.35.321v1.642a.23.23,0,0,0,.1.191l1.52,1.021H13.57Zm1.621-1.6H16.93v1.178H15.555a1.107,1.107,0,0,0-.363-1.178Zm-3.513-3.028h.369V22.1a.23.23,0,0,0,.032.116l1.031,1.755v1.4H11.733V23.892a.23.23,0,0,0-.23-.23h-.95V20.516A1.127,1.127,0,0,1,11.679,19.389Zm-1.126,6.674V24.121h.72V25.6a.23.23,0,0,0,.23.23h1.608v1.355H11.679A1.127,1.127,0,0,1,10.553,26.064Zm6.8,1.114L15.38,25.856v-1.8h2.973v2.01A1.123,1.123,0,0,1,17.348,27.177ZM14.591,10.1c-2.5,0-4.358,1.07-4.961,2.862a.46.46,0,1,1-.871-.293c.735-2.184,2.915-3.488,5.832-3.488,3.36,0,5.24,1.872,5.828,3.476a.46.46,0,1,1-.863.316C19.07,11.652,17.478,10.1,14.591,10.1ZM6.707,11.181c.989-2.94,3.936-4.7,7.884-4.7,4.548,0,7.087,2.523,7.88,4.683a.46.46,0,1,1-.863.317C20.917,9.6,18.665,7.4,14.591,7.4c-3.534,0-6.156,1.521-7.013,4.069a.459.459,0,1,1-.871-.293Zm10.408,1.714a.46.46,0,0,1-.892.223,1.611,1.611,0,0,0-1.633-.874,1.632,1.632,0,0,0-1.638.9.459.459,0,0,1-.44.328.473.473,0,0,1-.132-.019.459.459,0,0,1-.308-.572,2.507,2.507,0,0,1,2.518-1.55A2.469,2.469,0,0,1,17.115,12.895Z" transform="translate(-15310.687 -23310.486)" fill="#b2b2b2"/>
  </g>
</svg>
