<svg xmlns="http://www.w3.org/2000/svg" xmlns:xlink="http://www.w3.org/1999/xlink" width="50" height="50" viewBox="0 0 50 50">
  <defs>
    <clipPath id="clip-path">
      <rect id="Rectangle_191" data-name="Rectangle 191" width="50" height="50" transform="translate(-15231 -23462)" fill="#fff" stroke="#707070" stroke-width="1" opacity="0.4"/>
    </clipPath>
  </defs>
  <g id="Mask_Group_33" data-name="Mask Group 33" transform="translate(15231 23462)" clip-path="url(#clip-path)">
    <g id="Group_1232" data-name="Group 1232" transform="translate(-30 84)">
      <path id="Path_1103" data-name="Path 1103" d="M19.637,52.487h15.3a.637.637,0,0,0,.637-.637V49.3a3.187,3.187,0,0,0-1.715-2.811A2.665,2.665,0,0,0,34.937,44.2a2.837,2.837,0,0,0-1.109-2.04.638.638,0,0,1-.2-.484c.159-3.187-.191-5.2-1.077-6.132S29.665,34,27.287,34s-4.341.58-5.253,1.543-1.275,2.939-1.084,6.132a.637.637,0,0,1-.21.491,2.824,2.824,0,0,0-1.1,2.034,2.665,2.665,0,0,0,1.077,2.289A3.187,3.187,0,0,0,19,49.3v2.55A.637.637,0,0,0,19.637,52.487Zm1.912-9.358a1.912,1.912,0,0,0,.637-1.517c-.185-3.653.376-4.819.733-5.189.682-.688,2.454-1.147,4.367-1.147s3.685.459,4.335,1.147c.351.37.912,1.536.727,5.189a1.912,1.912,0,0,0,.637,1.511,1.638,1.638,0,0,1,.676,1.077c0,.765-.382,1.275-.637,1.275a.924.924,0,0,0-.79.637h-2.4v-.459a3.187,3.187,0,0,0,1.275-2.55v-.988a1.275,1.275,0,0,0,0-2.206V39.1a2.55,2.55,0,0,0-2.55-2.55.637.637,0,0,0-.637.637,1.9,1.9,0,0,1-3.015,1.555.637.637,0,0,0-.956.287l-.319.8a1.273,1.273,0,0,0-.172,2.289v.994a3.187,3.187,0,0,0,1.275,2.55v.453h-2.4a.924.924,0,0,0-.79-.637c-.255,0-.637-.51-.637-1.275A1.626,1.626,0,0,1,21.55,43.129Zm5.948,2.2a.637.637,0,0,1-.472,0l-1.109-.44a1.912,1.912,0,0,1-1.179-1.779V41.65a.637.637,0,0,0-.637-.637.637.637,0,0,0,.593-.4l.178-.446a3.149,3.149,0,0,0,1.141.21,3.187,3.187,0,0,0,3.1-2.429,1.275,1.275,0,0,1,.727,1.154v1.275a.637.637,0,0,0,.637.637.637.637,0,0,0-.637.637v1.46a1.912,1.912,0,0,1-1.2,1.779Zm1.065.963v.459a1.275,1.275,0,1,1-2.55,0V46.29l.567.223a1.855,1.855,0,0,0,1.415,0ZM20.275,49.3a1.912,1.912,0,0,1,1.912-1.912H24.82a2.55,2.55,0,0,0,4.934,0h2.633A1.912,1.912,0,0,1,34.3,49.3v1.912H20.275Z" transform="translate(-15203.525 -23553.965)" fill="#adadad"/>
      <path id="Path_1104" data-name="Path 1104" d="M6.55,43.04A2.55,2.55,0,1,0,4,40.49a2.55,2.55,0,0,0,2.55,2.55Zm0-3.825A1.275,1.275,0,1,1,5.275,40.49,1.275,1.275,0,0,1,6.55,39.215Z" transform="translate(-15198.088 -23555.393)" fill="#adadad"/>
      <path id="Path_1105" data-name="Path 1105" d="M1.637,53.315h7.65a.637.637,0,0,0,.637-.637v-2.55A3.187,3.187,0,0,0,6.737,46.94H4.187A3.187,3.187,0,0,0,1,50.127v2.55a.637.637,0,0,0,.637.637Zm.637-3.187a1.912,1.912,0,0,1,1.912-1.912h2.55A1.912,1.912,0,0,1,8.65,50.127V52.04H2.275Z" transform="translate(-15197 -23558.656)" fill="#adadad"/>
      <path id="Path_1106" data-name="Path 1106" d="M54.55,43.04A2.55,2.55,0,1,0,52,40.49,2.55,2.55,0,0,0,54.55,43.04Zm0-3.825a1.275,1.275,0,1,1-1.275,1.275A1.275,1.275,0,0,1,54.55,39.215Z" transform="translate(-15215.488 -23555.393)" fill="#adadad"/>
      <path id="Path_1107" data-name="Path 1107" d="M54.737,46.94h-2.55A3.187,3.187,0,0,0,49,50.127v2.55a.637.637,0,0,0,.637.637h7.65a.637.637,0,0,0,.637-.637v-2.55A3.187,3.187,0,0,0,54.737,46.94Zm1.912,5.1H50.275V50.127a1.912,1.912,0,0,1,1.912-1.912h2.55a1.912,1.912,0,0,1,1.912,1.912Z" transform="translate(-15214.4 -23558.656)" fill="#adadad"/>
      <path id="Path_1108" data-name="Path 1108" d="M9.118,29.921a.637.637,0,0,0-.51-.427l-.982-.147-.446-.95a.637.637,0,0,0-1.16,0l-.446.95-.982.147a.631.631,0,0,0-.363,1.065l.733.752L4.79,32.376a.637.637,0,0,0,.937.637l.841-.465.873.484a.64.64,0,0,0,.937-.676l-.172-1.065.733-.733A.637.637,0,0,0,9.118,29.921Zm-2.053.72a.637.637,0,0,0-.172.548v.089H6.855a.637.637,0,0,0-.637,0H6.18V31.19a.637.637,0,0,0-.172-.548l-.032-.083h.1a.638.638,0,0,0,.5-.382h0a.637.637,0,0,0,.484.357h.1Z" transform="translate(-15198.106 -23551.797)" fill="#adadad"/>
      <path id="Path_1109" data-name="Path 1109" d="M57.118,29.921a.637.637,0,0,0-.51-.427l-.982-.147-.446-.95a.637.637,0,0,0-1.16,0l-.446.95-.982.147a.631.631,0,0,0-.363,1.065l.733.752-.172,1.065a.637.637,0,0,0,.937.637l.841-.465.873.484a.64.64,0,0,0,.937-.676l-.172-1.065.733-.733A.637.637,0,0,0,57.118,29.921Zm-2.021.739a.638.638,0,0,0-.172.548V31.3h-.038a.637.637,0,0,0-.637,0h-.038v-.089a.638.638,0,0,0-.172-.548l-.064-.1h.1a.637.637,0,0,0,.5-.382h0a.638.638,0,0,0,.484.357h.1Z" transform="translate(-15215.509 -23551.797)" fill="#adadad"/>
      <path id="Path_1110" data-name="Path 1110" d="M23.542,9.9a.631.631,0,0,0-.363,1.065l2.327,2.384-.548,3.372a.637.637,0,0,0,.937.637l2.843-1.536L31.581,17.4a.64.64,0,0,0,.937-.676l-.548-3.372L34.3,10.964A.631.631,0,0,0,33.933,9.9l-3.187-.484L29.318,6.368a.637.637,0,0,0-1.16,0L26.73,9.415Zm4.195.363,1-2.129,1,2.129a.637.637,0,0,0,.478.357l2.295.357L30.829,12.7a.637.637,0,0,0-.172.548l.4,2.4-2.008-1.109a.637.637,0,0,0-.637,0L26.4,15.643l.427-2.4a.637.637,0,0,0-.172-.548L24.97,10.977l2.295-.357A.637.637,0,0,0,27.737,10.263Z" transform="translate(-15204.977 -23543.809)" fill="#adadad"/>
      <path id="Path_1111" data-name="Path 1111" d="M46.173,16H44.9a8.681,8.681,0,0,1-.178,1.728L45.995,18A9.562,9.562,0,0,0,46.173,16Z" transform="translate(-15212.85 -23547.438)" fill="#adadad"/>
      <path id="Path_1112" data-name="Path 1112" d="M40.9,5.991a8.612,8.612,0,0,1,1.135,1.32l1.045-.727A9.32,9.32,0,0,0,41.805,5.06Z" transform="translate(-15211.465 -23543.473)" fill="#adadad"/>
      <path id="Path_1113" data-name="Path 1113" d="M44,10.724a8.071,8.071,0,0,1,.5,1.664l1.275-.236A9.281,9.281,0,0,0,45.2,10.24Z" transform="translate(-15212.589 -23545.348)" fill="#adadad"/>
      <path id="Path_1114" data-name="Path 1114" d="M24.71,2.444l.637,1.116a8.058,8.058,0,0,1,1.6-.682l-.4-1.218a9.205,9.205,0,0,0-1.842.784Z" transform="translate(-15205.597 -23542.238)" fill="#adadad"/>
      <path id="Path_1115" data-name="Path 1115" d="M17.37,11.616l1.243.274a8.466,8.466,0,0,1,.555-1.645L18.014,9.71A9.454,9.454,0,0,0,17.37,11.616Z" transform="translate(-15202.936 -23545.16)" fill="#adadad"/>
      <path id="Path_1116" data-name="Path 1116" d="M32.545,2.339,32.7,1.064A10.2,10.2,0,0,0,31.525,1a6.151,6.151,0,0,0-.835.038L30.8,2.313h.7a7.05,7.05,0,0,1,1.039.025Z" transform="translate(-15207.764 -23542)" fill="#adadad"/>
      <path id="Path_1117" data-name="Path 1117" d="M24.127,26.619a8.185,8.185,0,0,1-1.4-1.039l-.861.943a9.453,9.453,0,0,0,1.606,1.192Z" transform="translate(-15204.565 -23550.91)" fill="#adadad"/>
      <path id="Path_1118" data-name="Path 1118" d="M17,15.946a9.747,9.747,0,0,0,.185,1.912l1.275-.249a8.237,8.237,0,0,1-.185-1.664v-.1H17Z" transform="translate(-15202.8 -23547.383)" fill="#adadad"/>
      <path id="Path_1119" data-name="Path 1119" d="M20.257,22.677A8.064,8.064,0,0,1,19.4,21.16l-1.173.51a9.62,9.62,0,0,0,.988,1.747Z" transform="translate(-15203.247 -23549.309)" fill="#adadad"/>
      <path id="Path_1120" data-name="Path 1120" d="M43.373,21.31a8.287,8.287,0,0,1-.873,1.5l1.033.752a9.658,9.658,0,0,0,1.007-1.74Z" transform="translate(-15212.045 -23549.363)" fill="#adadad"/>
      <path id="Path_1121" data-name="Path 1121" d="M27.662,28.34l-.4,1.211a9.8,9.8,0,0,0,1.963.427l.14-1.275A8.529,8.529,0,0,1,27.662,28.34Z" transform="translate(-15206.52 -23551.912)" fill="#adadad"/>
      <path id="Path_1122" data-name="Path 1122" d="M39.869,25.69a8.8,8.8,0,0,1-1.409,1.02l.637,1.1a9.492,9.492,0,0,0,1.619-1.173Z" transform="translate(-15210.581 -23550.953)" fill="#adadad"/>
      <path id="Path_1123" data-name="Path 1123" d="M36.671,1.82l-.421,1.2a8.446,8.446,0,0,1,1.575.739l.637-1.09a10.047,10.047,0,0,0-1.791-.854Z" transform="translate(-15209.779 -23542.299)" fill="#adadad"/>
      <path id="Path_1124" data-name="Path 1124" d="M21.358,4.7A9.632,9.632,0,0,0,20,6.166l1.02.765a8.319,8.319,0,0,1,1.186-1.275Z" transform="translate(-15203.888 -23543.344)" fill="#adadad"/>
      <path id="Path_1125" data-name="Path 1125" d="M35.032,28.39a8.5,8.5,0,0,1-1.7.351l.127,1.275a9.862,9.862,0,0,0,1.963-.408Z" transform="translate(-15208.72 -23551.932)" fill="#adadad"/>
    </g>
  </g>
</svg>
