<svg xmlns="http://www.w3.org/2000/svg" xmlns:xlink="http://www.w3.org/1999/xlink" width="50" height="50" viewBox="0 0 50 50">
  <defs>
    <clipPath id="clip-path">
      <rect id="Rectangle_183" data-name="Rectangle 183" width="50" height="50" transform="translate(-15176 -23320)" fill="#fff" stroke="#707070" stroke-width="1" opacity="0.4"/>
    </clipPath>
  </defs>
  <g id="Mask_Group_26" data-name="Mask Group 26" transform="translate(15176 23320)" clip-path="url(#clip-path)">
    <g id="Group_1227" data-name="Group 1227" transform="translate(124.004 -110)">
      <path id="Path_1081" data-name="Path 1081" d="M35.273,16.075H25.867a.954.954,0,0,0,0-.168,20.238,20.238,0,0,0-1.289-3.929,33.272,33.272,0,0,0-1.6-3.177A7.93,7.93,0,0,0,17.4,4.884L2.115,2.237a.954.954,0,1,0-.324,1.88L17.082,6.769A6.03,6.03,0,0,1,21.3,9.748a31.43,31.43,0,0,1,1.526,2.994,18.69,18.69,0,0,1,1.121,3.337H17.361a6.312,6.312,0,0,0,.309-.866.954.954,0,1,0-1.842-.488,3.814,3.814,0,0,1-.683,1.4,8.159,8.159,0,0,1-2.323-2.273.954.954,0,1,0-1.575,1.072,10.054,10.054,0,0,0,2.96,2.853l4.959,3.132A1.707,1.707,0,0,1,17.349,23.8l-3.8-2.35a9,9,0,0,0-5.035-1.362A7.148,7.148,0,0,1,2.7,17.361a.955.955,0,0,0-1.5,1.179,9.036,9.036,0,0,0,3.673,2.777l-.252.248a3.029,3.029,0,0,0,1.24,5.062,2.941,2.941,0,0,0,3.845,3.433l.145-.053v5.187a3.109,3.109,0,0,0,3.1,3.1H35.273a3.109,3.109,0,0,0,3.1-3.112V19.165a3.109,3.109,0,0,0-3.1-3.09ZM5.956,22.922,6.994,21.9A8.9,8.9,0,0,0,8.573,22a7.152,7.152,0,0,1,1.282.084v1.076l-.061.031-2.441,1.5a1.144,1.144,0,0,1-1.4-1.766Zm3.112,5.34a1.034,1.034,0,0,1-.889-1.85l.031-.027c.046-.027.1-.046.141-.072l1.5-.923v2.594Zm27.4,6.923a1.2,1.2,0,0,1-1.2,1.2H12.952a1.2,1.2,0,0,1-1.2-1.2V22.647a7.133,7.133,0,0,1,.782.42l3.784,2.357a3.589,3.589,0,0,0,1.907.549A3.617,3.617,0,0,0,20.172,19.3l-2.086-1.324H35.273a1.2,1.2,0,0,1,1.2,1.2Z" transform="translate(-15295 -23205.223)" fill="#b2b2b2"/>
      <path id="Path_1082" data-name="Path 1082" d="M65.751,54.742V53.083a3.433,3.433,0,0,0-3.433-3.433h-.526a3.433,3.433,0,0,0-3.433,3.433v1.659a2.449,2.449,0,0,0-2.208,2.437v3.479A2.449,2.449,0,0,0,58.6,63.107h6.915a2.449,2.449,0,0,0,2.449-2.449V57.183A2.449,2.449,0,0,0,65.751,54.742Zm-3.959-3.185h.526a1.526,1.526,0,0,1,1.526,1.526v1.659H60.266V53.083A1.526,1.526,0,0,1,61.791,51.557Zm4.264,9.1a.542.542,0,0,1-.542.542H58.6a.542.542,0,0,1-.542-.542V57.183a.542.542,0,0,1,.542-.534h6.915a.542.542,0,0,1,.542.542Z" transform="translate(-15329.117 -23234.559)" fill="#b2b2b2"/>
      <path id="Path_1083" data-name="Path 1083" d="M75.671,15.178a.954.954,0,1,0,1.85-.465,9.967,9.967,0,0,0-7.247-7.247.954.954,0,0,0-.454,1.854A8.06,8.06,0,0,1,75.671,15.178Z" transform="translate(-15337.122 -23208.449)" fill="#b2b2b2"/>
      <path id="Path_1084" data-name="Path 1084" d="M67.534,18.8a.954.954,0,1,0-.488,1.842,3.639,3.639,0,0,1,2.575,2.578.954.954,0,1,0,1.842-.488A5.55,5.55,0,0,0,67.534,18.8Z" transform="translate(-15335.396 -23215.453)" fill="#b2b2b2"/>
    </g>
  </g>
</svg>
