<svg xmlns="http://www.w3.org/2000/svg" xmlns:xlink="http://www.w3.org/1999/xlink" width="50" height="50" viewBox="0 0 50 50">
  <defs>
    <clipPath id="clip-path">
      <rect id="Rectangle_182" data-name="Rectangle 182" width="50" height="50" transform="translate(-15215 -23394)" fill="#fff" stroke="#707070" stroke-width="1" opacity="0.4"/>
    </clipPath>
  </defs>
  <g id="Mask_Group_25" data-name="Mask Group 25" transform="translate(15215 23394)" clip-path="url(#clip-path)">
    <g id="Group_1216" data-name="Group 1216" transform="translate(307 -408)">
      <g id="Group_1216-2" data-name="Group 1216" transform="translate(-15519.957 -22959.434)">
        <path id="Path_1107" data-name="Path 1107" d="M14.036,65.429H11.643a.6.6,0,0,1-.6-.6V54.412a.6.6,0,0,1,.6-.6h2.393a.6.6,0,0,1,.6.6V64.829A.6.6,0,0,1,14.036,65.429Zm-1.793-1.2h1.193V55.012H12.243Z" transform="translate(-11.043 -53.812)" fill="#adadad"/>
      </g>
      <g id="Group_1217" data-name="Group 1217" transform="translate(-15517.563 -22963.102)">
        <path id="Path_1108" data-name="Path 1108" d="M36.965,69.1a6.75,6.75,0,0,1-1.819-.239C26.372,66.415,15.51,61.94,15.4,61.895a.6.6,0,1,1,.459-1.109c.108.045,10.905,4.492,19.607,6.914C43.327,69.887,56.5,53.712,58.156,51.633a1.07,1.07,0,0,0-.436-.622A2.514,2.514,0,0,0,56,50.845a.6.6,0,0,1-.694-.835c.132-.289.241-.8.09-.974-.038-.041-.414-.39-2.218.2a7.7,7.7,0,0,0-4.127,3.279c-.628.869-1.22,1.69-2.23,1.87a.6.6,0,1,1-.211-1.182c.507-.091.87-.563,1.467-1.391A8.846,8.846,0,0,1,52.8,48.1c1.753-.574,2.895-.529,3.491.142a1.679,1.679,0,0,1,.361,1.324,3.072,3.072,0,0,1,1.728.446,2.369,2.369,0,0,1,1.013,1.684.6.6,0,0,1-.118.457C58.707,52.886,46.064,69.1,36.965,69.1Z" transform="translate(-15.031 -47.699)" fill="#adadad"/>
      </g>
      <g id="Group_1218" data-name="Group 1218" transform="translate(-15484.793 -22961.137)">
        <path id="Path_1109" data-name="Path 1109" d="M70.231,60.3a.6.6,0,0,1-.443-1.006l7.447-8.131a.6.6,0,1,1,.885.811l-7.447,8.131A.6.6,0,0,1,70.231,60.3Z" transform="translate(-69.631 -50.972)" fill="#adadad"/>
      </g>
      <g id="Group_1219" data-name="Group 1219" transform="translate(-15489.507 -22980.484)">
        <path id="Path_1110" data-name="Path 1110" d="M62.378,22.072a.617.617,0,0,1-.066,0,.6.6,0,0,1-.531-.663l.235-2.134a.6.6,0,1,1,1.194.131l-.235,2.134A.6.6,0,0,1,62.378,22.072Z" transform="translate(-61.777 -18.737)" fill="#adadad"/>
      </g>
      <g id="Group_1220" data-name="Group 1220" transform="translate(-15500.008 -22980.572)">
        <path id="Path_1111" data-name="Path 1111" d="M45.093,22.1a.6.6,0,0,1-.6-.546l-.212-2.313a.6.6,0,0,1,1.2-.11l.212,2.313a.6.6,0,0,1-.543.652Z" transform="translate(-44.281 -18.59)" fill="#adadad"/>
      </g>
      <g id="Group_1221" data-name="Group 1221" transform="translate(-15494.486 -22982)">
        <path id="Path_1112" data-name="Path 1112" d="M54.08,19.473a.6.6,0,0,1-.6-.6V16.811a.6.6,0,1,1,1.2,0v2.062A.6.6,0,0,1,54.08,19.473Z" transform="translate(-53.48 -16.211)" fill="#adadad"/>
      </g>
      <g id="Group_1222" data-name="Group 1222" transform="translate(-15517.563 -22960.953)">
        <path id="Path_1113" data-name="Path 1113" d="M30.984,62.238a.6.6,0,0,1-.2-1.167c.388-.134,9.54-3.28,13.461-2.587a2.171,2.171,0,0,0,2.127-.5,1.627,1.627,0,0,0,.163-1.642,3.232,3.232,0,0,0-2.7-1.838,19.723,19.723,0,0,0-5.5.441c-3.3.556-6.716,1.133-8.117-1.245-1.777-3.012-10.957.219-14.346,1.718a.6.6,0,0,1-.486-1.1c1.347-.6,13.233-5.7,15.866-1.23.983,1.666,3.848,1.182,6.884.67a20.5,20.5,0,0,1,5.868-.447,4.4,4.4,0,0,1,3.651,2.589,2.806,2.806,0,0,1-.352,2.84,3.212,3.212,0,0,1-3.264.919c-3.61-.636-12.767,2.508-12.859,2.539A.587.587,0,0,1,30.984,62.238Z" transform="translate(-15.031 -51.277)" fill="#adadad"/>
      </g>
      <g id="Group_1223" data-name="Group 1223" transform="translate(-15501.803 -22977.447)">
        <path id="Path_1114" data-name="Path 1114" d="M49.007,39.226a7.716,7.716,0,1,1,7.715-7.716A7.724,7.724,0,0,1,49.007,39.226Zm0-14.231a6.515,6.515,0,1,0,6.515,6.515A6.523,6.523,0,0,0,49.007,25Z" transform="translate(-41.291 -23.795)" fill="#adadad"/>
      </g>
      <g id="Group_1224" data-name="Group 1224" transform="translate(-15497.164 -22974.023)">
        <path id="Path_1115" data-name="Path 1115" d="M52.5,37.861a3.612,3.612,0,0,1-1.827-.454c-.755-.441-1.655-1.425-1.655-3.615a4.163,4.163,0,0,1,1.353-3.386,4.969,4.969,0,0,1,3.739-.834.6.6,0,0,1-.223,1.179,3.8,3.8,0,0,0-2.754.583,3.038,3.038,0,0,0-.914,2.458,2.752,2.752,0,0,0,1.06,2.578,3.183,3.183,0,0,0,2.523.049.6.6,0,0,1,.591,1.045A4.41,4.41,0,0,1,52.5,37.861Z" transform="translate(-49.019 -29.501)" fill="#adadad"/>
      </g>
      <g id="Group_1225" data-name="Group 1225" transform="translate(-15498.376 -22971.334)">
        <path id="Path_1116" data-name="Path 1116" d="M52.845,35.182H47.6a.6.6,0,0,1,0-1.2h5.245a.6.6,0,0,1,0,1.2Z" transform="translate(-47 -33.982)" fill="#adadad"/>
      </g>
      <g id="Group_1226" data-name="Group 1226" transform="translate(-15498.376 -22969.551)">
        <path id="Path_1117" data-name="Path 1117" d="M52.845,38.151H47.6a.6.6,0,0,1,0-1.2h5.245a.6.6,0,1,1,0,1.2Z" transform="translate(-47 -36.951)" fill="#adadad"/>
      </g>
    </g>
  </g>
</svg>
