<svg xmlns="http://www.w3.org/2000/svg" xmlns:xlink="http://www.w3.org/1999/xlink" width="23.38" height="23.381" viewBox="0 0 23.38 23.381">
  <defs>
    <clipPath id="clip-path">
      <rect id="Rectangle_190" data-name="Rectangle 190" width="23.38" height="23.38" transform="translate(-14558.882 -23377.197)" fill="#fff" stroke="#707070" stroke-width="1" opacity="0.5"/>
    </clipPath>
  </defs>
  <g id="Mask_Group_27" data-name="Mask Group 27" transform="translate(14558.882 23377.197)" clip-path="url(#clip-path)">
    <g id="Group_1212" data-name="Group 1212" transform="translate(-14583.02 -23398.512)" opacity="0.4">
      <g id="Group_1212-2" data-name="Group 1212" transform="translate(25.94 22.912)">
        <path id="Path_1088" data-name="Path 1088" d="M35.595,24.863a1.093,1.093,0,0,0-.8.338,1.124,1.124,0,0,0-.355.818.969.969,0,0,0,.231.658l-.018.018.089.089.053.053.089.089-1.422.249q-1.155-1.191-2.239-2.239a9.143,9.143,0,0,0-.978-.871,4.95,4.95,0,0,0-2.2-1.1,1.78,1.78,0,0,0-1.671.391A1.721,1.721,0,0,0,26,25.005a5.183,5.183,0,0,0,1.1,2.239,8.6,8.6,0,0,0,.853.96l2.239,2.239-.231,1.4-.124-.124a1.181,1.181,0,0,0-.746-.249,1.093,1.093,0,0,0-.8.338,1.135,1.135,0,0,0-.338.835,1.041,1.041,0,0,0,.249.711l1.3,1.3-1.031,6.4a1.308,1.308,0,0,0,.036.6,1.191,1.191,0,0,0,.3.515,1.216,1.216,0,0,0,1.049.373,1.186,1.186,0,0,0,.96-.533l4.6-6.345,1.191,1.191a10.358,10.358,0,0,0,1.635,1.28l-.853,2.95a1.305,1.305,0,0,0,0,.675,1.1,1.1,0,0,0,.3.551,1.216,1.216,0,0,0,1.013.373,1.177,1.177,0,0,0,.906-.515L41.3,39.74q.924.427,1.635.675a.318.318,0,0,0,.231.018.272.272,0,0,0,.2-.089.451.451,0,0,0,.107-.213.368.368,0,0,0-.036-.213q-.267-.693-.675-1.635l2.435-1.689a1.264,1.264,0,0,0,.142-1.92,1,1,0,0,0-.569-.284.959.959,0,0,0-.658-.018l-2.95.853a9.539,9.539,0,0,0-1.28-1.671l-1.173-1.173,6.345-4.6a1.119,1.119,0,0,0,.515-.942,1.216,1.216,0,0,0-.373-1.049,1.191,1.191,0,0,0-.515-.3,1.569,1.569,0,0,0-.622-.053L37.71,26.481l-1.422-1.422-.018.018a1.094,1.094,0,0,0-.675-.213m0,.782a.362.362,0,0,1,.267.089l.889.889-.942.16-.48-.48a.433.433,0,0,1-.124-.267.468.468,0,0,1,.142-.284.341.341,0,0,1,.249-.107m2.524,6.185-3.964-4L44.2,26.178l.249.036a.5.5,0,0,1,.2.124.582.582,0,0,1,.178.427.625.625,0,0,1-.231.409l-6.47,4.657m-8.229-7.092q.213.178.391.355.231.2,1,1l8.034,8.034a8.235,8.235,0,0,1,1.369,1.831,25.871,25.871,0,0,1,1.689,3.395,31.2,31.2,0,0,1-3.448-1.706,10.386,10.386,0,0,1-1.777-1.351l-8.034-8.034-1-1q-.178-.178-.355-.391a2.136,2.136,0,0,1,.107-.889,1.785,1.785,0,0,1,.427-.711A1.966,1.966,0,0,1,29,24.845a2.239,2.239,0,0,1,.889-.107M27.739,23.69a3.413,3.413,0,0,1,1.138.391,2.46,2.46,0,0,0-1.138.64,2.6,2.6,0,0,0-.658,1.12,8.623,8.623,0,0,1-.355-1,1.083,1.083,0,0,1,.2-.942,1.029,1.029,0,0,1,.818-.213m1.351,8.567a.4.4,0,0,1,.284.071l.427.462-.16.942-.818-.818a.374.374,0,0,1-.124-.267.468.468,0,0,1,.142-.284.341.341,0,0,1,.249-.107m.267,9.367a.5.5,0,0,1-.124-.2,1.888,1.888,0,0,1-.018-.267L30.849,31.1l4,4-4.674,6.487a.56.56,0,0,1-.818.036M44.57,35.119a.341.341,0,0,1,.249.107.528.528,0,0,1,.142.391.439.439,0,0,1-.231.338l-2.293,1.617q-.462-.924-.853-1.635l2.755-.835a.5.5,0,0,1,.231.018m-5.6,3.43q.711.391,1.617.835l-1.617,2.328a.417.417,0,0,1-.32.213.554.554,0,0,1-.409-.16.368.368,0,0,1-.107-.213.442.442,0,0,1,0-.249l.835-2.755m1.617.835q-.906-.444-1.617-.835L38.136,41.3a.442.442,0,0,0,0,.249.368.368,0,0,0,.107.213.554.554,0,0,0,.409.16.417.417,0,0,0,.32-.213l1.617-2.328m4.23-4.159a.341.341,0,0,0-.249-.107.5.5,0,0,0-.231-.018l-2.755.835q.391.711.853,1.635l2.293-1.617a.439.439,0,0,0,.231-.338.528.528,0,0,0-.142-.391m-15.588,6.2a.543.543,0,0,0,.533.355.5.5,0,0,0,.409-.2L34.848,35.1l-4-4-1.635,10.06a1.888,1.888,0,0,0,.018.267M30.28,25.094q-.178-.178-.391-.355a2.239,2.239,0,0,0-.889.107,1.966,1.966,0,0,0-.711.427,1.785,1.785,0,0,0-.427.711,2.136,2.136,0,0,0-.107.889q.178.213.355.391l1,1,8.034,8.034a10.386,10.386,0,0,0,1.777,1.351,31.2,31.2,0,0,0,3.448,1.706,25.871,25.871,0,0,0-1.689-3.395,8.235,8.235,0,0,0-1.369-1.831L31.276,26.09q-.764-.8-1-1m3.875,2.737,3.964,4,6.47-4.657a.625.625,0,0,0,.231-.409.582.582,0,0,0-.178-.427.5.5,0,0,0-.2-.124l-.249-.036Z" transform="translate(-25.94 -22.912)" fill="#0a0a0a"/>
      </g>
    </g>
  </g>
</svg>
