<svg xmlns="http://www.w3.org/2000/svg" xmlns:xlink="http://www.w3.org/1999/xlink" width="23.38" height="23.381" viewBox="0 0 23.38 23.381">
  <defs>
    <clipPath id="clip-path">
      <rect id="Rectangle_191" data-name="Rectangle 191" width="23.38" height="23.38" transform="translate(-14553.572 -23297.691)" fill="#fff" stroke="#707070" stroke-width="1" opacity="0.5"/>
    </clipPath>
  </defs>
  <g id="Mask_Group_28" data-name="Mask Group 28" transform="translate(14553.572 23297.691)" clip-path="url(#clip-path)">
    <g id="Group_1213" data-name="Group 1213" transform="translate(-163 -133.816)" opacity="0.4">
      <path id="Path_1090" data-name="Path 1090" d="M11.966,43.366s-.9-.759-.862-1.034l-.483-1.483a1.024,1.024,0,0,1,.241-1.1.367.367,0,0,0,.069-.414L10.1,37.71a.442.442,0,0,0-.517-.172s-.828.586-1.276.276L7,37.4a8.7,8.7,0,0,0,4.31,7l.586-.414A.443.443,0,0,0,11.966,43.366Z" transform="translate(-14394.621 -23187.537)" fill="#0a0a0a"/>
      <path id="Path_1091" data-name="Path 1091" d="M42.126,36a2.484,2.484,0,0,0-1.828-.276,3.378,3.378,0,0,0-1.448.69L37.5,37.762c-.276.241.1.759.1.759a1.071,1.071,0,0,1-.345,1.379l-.793.517a.389.389,0,0,0-.034.621l1.138,1.138a1.129,1.129,0,0,1,.276,1.034l-.207.724a8.7,8.7,0,0,0,5.793-7.828S42.195,36.142,42.126,36Z" transform="translate(-14413.815 -23186.383)" fill="#0a0a0a"/>
      <path id="Path_1092" data-name="Path 1092" d="M21.828,24.541H19.379a1.052,1.052,0,0,1,.724,1.034,1.016,1.016,0,0,1-1.034,1.034h-2.9l-1.621,3.276a.362.362,0,0,1-.31.172h-.69a.371.371,0,0,1-.345-.345V24.541H8.931l-.586,1.207a.362.362,0,0,1-.31.172h-.69A8.938,8.938,0,0,0,7,28.093l1.552.517c.207.1.724-.241.724-.241a1.08,1.08,0,0,1,1.448.448l.828,1.621a1.11,1.11,0,0,1-.207,1.241.348.348,0,0,0-.1.379l.483,1.483a8.136,8.136,0,0,0,.724.759A1.165,1.165,0,0,1,12,36.162a8.547,8.547,0,0,0,3.621.793,7.57,7.57,0,0,0,2-.241l.31-1.138a.368.368,0,0,0-.1-.379L16.69,34.059a1.047,1.047,0,0,1,.172-1.655l.793-.517a.382.382,0,0,0,.138-.483,1.214,1.214,0,0,1,.034-1.586l1.345-1.345a3.676,3.676,0,0,1,1.724-.828,2.486,2.486,0,0,1,1.862.1c.517.31.517.241,1.483.241a8.206,8.206,0,0,0-1-3.69A3.69,3.69,0,0,1,21.828,24.541Z" transform="translate(-14394.621 -23178.955)" fill="#0a0a0a"/>
      <path id="Path_1093" data-name="Path 1093" d="M34.514,24.034a.973.973,0,0,0-.138-.517,1.02,1.02,0,0,0-1.793.034.339.339,0,0,1-.448.138s-.345-.069-.345.345a.371.371,0,0,1-.345.345.345.345,0,1,0,0,.69h3.448a.345.345,0,1,0,0-.69A.405.405,0,0,1,34.514,24.034Z" transform="translate(-14410.41 -23178.104)" fill="#0a0a0a"/>
      <path id="Path_1094" data-name="Path 1094" d="M9.724,8.345,9,7.138v4.138l.724-1.207a.362.362,0,0,1,.31-.172h4.828a.371.371,0,0,1,.345.345v5.172l1.517-2.793a.977.977,0,0,1-.828-1,1.079,1.079,0,0,1,.724-1,1.034,1.034,0,0,1,1-.724A1.7,1.7,0,0,1,19,9.207a1.747,1.747,0,0,1,1.379.69h2.759c.931,0,1.759-.379,1.724-.69-.034-.414-.862-.69-1.724-.69H18.31A.362.362,0,0,1,18,8.345L15.207,3V8.172a.371.371,0,0,1-.345.345H10.034A.362.362,0,0,1,9.724,8.345Z" transform="translate(-14395.932 -23165)" fill="#0a0a0a"/>
      <path id="Path_1095" data-name="Path 1095" d="M7.138,4.724a.371.371,0,0,0-.345-.345.371.371,0,0,1-.345-.345A1.016,1.016,0,0,0,5.414,3a.994.994,0,0,0-.9.552.426.426,0,0,1-.483.138.312.312,0,0,0-.345.345.371.371,0,0,1-.345.345A.371.371,0,0,0,3,4.724a.371.371,0,0,0,.345.345H6.793A.371.371,0,0,0,7.138,4.724Z" transform="translate(-14392 -23165)" fill="#0a0a0a"/>
      <path id="Path_1096" data-name="Path 1096" d="M52.793,8.379a.371.371,0,0,1-.345-.345A1.016,1.016,0,0,0,51.414,7a.994.994,0,0,0-.9.552.426.426,0,0,1-.483.138s-.31-.034-.345.345a.4.4,0,0,1-.345.345.345.345,0,0,0,0,.69h3.448a.345.345,0,0,0,0-.69Z" transform="translate(-14422.139 -23167.621)" fill="#0a0a0a"/>
    </g>
  </g>
</svg>
