<svg xmlns="http://www.w3.org/2000/svg" xmlns:xlink="http://www.w3.org/1999/xlink" width="23.38" height="23.381" viewBox="0 0 23.38 23.381">
  <defs>
    <clipPath id="clip-path">
      <rect id="Rectangle_192" data-name="Rectangle 192" width="23.38" height="23.38" transform="translate(-14569.572 -23216.508)" fill="#fff" stroke="#707070" stroke-width="1" opacity="0.5"/>
    </clipPath>
  </defs>
  <g id="Mask_Group_29" data-name="Mask Group 29" transform="translate(14569.572 23216.508)" clip-path="url(#clip-path)">
    <g id="Group_1214" data-name="Group 1214" transform="translate(-14583.275 -23230.541)" opacity="0.4">
      <path id="Path_1098" data-name="Path 1098" d="M36.61,52.2h-.237a.735.735,0,0,0-.74.592.779.779,0,0,0,.563.948h.03a.807.807,0,0,0,.948-.592A.779.779,0,0,0,36.61,52.2Z" transform="translate(-14.179 -25.532)" fill="#0a0a0a"/>
      <path id="Path_1099" data-name="Path 1099" d="M58.01,40.7H57.8a.792.792,0,0,0-.77.592.808.808,0,1,0,1.57.385A.839.839,0,0,0,58.01,40.7Z" transform="translate(-29.241 -17.438)" fill="#0a0a0a"/>
      <path id="Path_1100" data-name="Path 1100" d="M35.256,27.5l-.77-2.073.622-2.1a.9.9,0,0,0-.3-.918l-1.718-1.422-.533-2.132a.886.886,0,0,0-.711-.681l-2.192-.385-1.57-1.6a.925.925,0,0,0-.948-.207l-2.073.77-2.162-.652a.9.9,0,0,0-.918.3l-1.422,1.688-2.162.5a.886.886,0,0,0-.681.711l-.385,2.162-1.6,1.51a.874.874,0,0,0-.207.977l.77,2.073-.622,2.1a.9.9,0,0,0,.3.918l1.718,1.422.533,2.132a.886.886,0,0,0,.711.681l2.192.385,1.57,1.6a.807.807,0,0,0,.622.267l.326-.059,2.073-.77,2.162.652a.9.9,0,0,0,.918-.3l1.422-1.688,2.162-.5a.886.886,0,0,0,.681-.711l.385-2.162,1.6-1.51A.874.874,0,0,0,35.256,27.5ZM24.712,28a2.507,2.507,0,0,1-2.488,1.955,2.015,2.015,0,0,1-.592-.059,2.554,2.554,0,1,1,1.155-4.976A2.554,2.554,0,0,1,24.712,28Zm4.176,3.139-.03.03a.9.9,0,0,1-.474.148.931.931,0,0,1-.77-.415l-5.953-9.418A.859.859,0,0,1,21.9,20.3l.03-.03a.9.9,0,0,1,1.244.267l5.953,9.418A.859.859,0,0,1,28.888,31.14Zm2.192-6.545h0a2.564,2.564,0,0,1-2.488,1.984L28,26.52a2.6,2.6,0,0,1-1.925-3.08,2.569,2.569,0,0,1,5.005,1.155Z" fill="#0a0a0a"/>
    </g>
  </g>
</svg>
