<svg xmlns="http://www.w3.org/2000/svg" xmlns:xlink="http://www.w3.org/1999/xlink" width="23.38" height="23.381" viewBox="0 0 23.38 23.381">
  <defs>
    <clipPath id="clip-path">
      <rect id="Rectangle_189" data-name="Rectangle 189" width="23.38" height="23.38" transform="translate(-14562.882 -23456.508)" fill="#fff" stroke="#707070" stroke-width="1" opacity="0.5"/>
    </clipPath>
  </defs>
  <g id="Mask_Group_26" data-name="Mask Group 26" transform="translate(14562.882 23456.508)" clip-path="url(#clip-path)">
    <path id="Path_1085" data-name="Path 1085" d="M22.393,25.59c-.532,0-1.067.014-1.6.042V21.281l10.72-3.6a.4.4,0,0,0,.272-.38V17.09a.4.4,0,0,0-.272-.38l-10.72-3.6V12.4a.4.4,0,0,0-.8,0V25.684c-4.2.334-7.994,1.537-7.994,3.5,0,2.336,5.354,3.6,10.393,3.6s10.393-1.261,10.393-3.6S27.431,25.59,22.393,25.59Zm0,6.4c-5.654,0-9.593-1.475-9.593-2.8,0-1.127,2.858-2.362,7.195-2.7v1.269c-1.145.26-2,.729-2,1.435,0,1.153,2.278,1.679,4.4,1.679s4.4-.526,4.4-1.679-2.278-1.679-4.4-1.679a12.42,12.42,0,0,0-1.6.1V26.43q.773-.04,1.6-.04c5.654,0,9.593,1.475,9.593,2.8S28.047,31.986,22.393,31.986Z" transform="translate(-14573.882 -23467.162)" fill="#0a0a0a" stroke="rgba(0,0,0,0)" stroke-miterlimit="10" stroke-width="1" opacity="0.4"/>
  </g>
</svg>
