<svg xmlns="http://www.w3.org/2000/svg" xmlns:xlink="http://www.w3.org/1999/xlink" width="23.38" height="23.381" viewBox="0 0 23.38 23.381">
  <defs>
    <clipPath id="clip-path">
      <rect id="Rectangle_181" data-name="Rectangle 181" width="23.38" height="23.38" transform="translate(-14537 -23685)" fill="#fff" stroke="#707070" stroke-width="1" opacity="0.5"/>
    </clipPath>
  </defs>
  <g id="Mask_Group_23" data-name="Mask Group 23" transform="translate(14537 23685)" clip-path="url(#clip-path)">
    <g id="Group_1209" data-name="Group 1209" transform="translate(-42.915 -127.816)" opacity="0.4">
      <g id="Group_1208" data-name="Group 1208" transform="translate(-14493 -23556)">
        <path id="Path_1067" data-name="Path 1067" d="M32.718,30.215V28.5a.514.514,0,0,0-.513-.513H30.923A3.049,3.049,0,0,1,28.359,26.6a3.112,3.112,0,0,1-2.564,1.385H24.513A.514.514,0,0,0,24,28.5v1.718a4.359,4.359,0,1,0,8.718,0Zm-4.359,2.9a1.933,1.933,0,0,1-2.051-1.795.513.513,0,1,1,1.026,0c0,.41.462.769,1.026.769s1.026-.359,1.026-.769a.513.513,0,0,1,1.026,0A1.933,1.933,0,0,1,28.359,33.113Z" transform="translate(-21.436 -22.856)" fill="#0a0a0a"/>
        <path id="Path_1068" data-name="Path 1068" d="M21.18,12h-.513A6.686,6.686,0,0,0,14,18.667v.513a3.607,3.607,0,0,0,2.641,3.462,5.382,5.382,0,0,1-1.1-3.282V17.641A1.543,1.543,0,0,1,17.077,16.1h1.282a2.057,2.057,0,0,0,2.051-2.051.513.513,0,0,1,1.026,0A2.057,2.057,0,0,0,23.487,16.1h1.282a1.543,1.543,0,0,1,1.538,1.538v1.718a5.438,5.438,0,0,1-1.1,3.282,3.607,3.607,0,0,0,2.641-3.462v-.513A6.686,6.686,0,0,0,21.18,12Z" transform="translate(-14 -12)" fill="#0a0a0a"/>
        <path id="Path_1069" data-name="Path 1069" d="M16.615,68A2.6,2.6,0,0,0,14,70.564v2.564a.52.52,0,0,0,.538.513h4.59V72.1a1.024,1.024,0,0,1,1-1.026L18.795,68Z" transform="translate(-14 -53.641)" fill="#0a0a0a"/>
        <path id="Path_1070" data-name="Path 1070" d="M47.613,68h-2.18L44.1,71.077a1.007,1.007,0,0,1,1,1.026v1.538h4.59a.537.537,0,0,0,.538-.513V70.564A2.6,2.6,0,0,0,47.613,68Z" transform="translate(-36.382 -53.641)" fill="#0a0a0a"/>
        <rect id="Rectangle_180" data-name="Rectangle 180" width="1.093" height="1.093" transform="translate(6.558 18.582)" fill="#0a0a0a"/>
        <path id="Path_1071" data-name="Path 1071" d="M36,61.2v1.1l1.282,2.949,1.282-2.923v-1.1a5.318,5.318,0,0,1-1.282.154A4.3,4.3,0,0,1,36,61.2Z" transform="translate(-30.359 -48.585)" fill="#0a0a0a"/>
        <path id="Path_1072" data-name="Path 1072" d="M82.487,50.228l-3.462-.974v-.667a.5.5,0,0,0-.359-.487h-.231a.094.094,0,0,0-.077.026c-.026,0-.051.026-.1.026-.026,0-.026.026-.051.026-.026.026-.077.051-.1.077s-.026.026-.026.051-.026.026-.026.051-.026.026-.026.051a.436.436,0,0,0-.026.179v9.744a.513.513,0,1,0,1.026,0V51.485l3.462-.974a.163.163,0,0,0,.128-.154C82.615,50.28,82.564,50.254,82.487,50.228Z" transform="translate(-61.59 -38.844)" fill="#0a0a0a"/>
      </g>
    </g>
  </g>
</svg>
