<svg xmlns="http://www.w3.org/2000/svg" xmlns:xlink="http://www.w3.org/1999/xlink" width="23.38" height="23.381" viewBox="0 0 23.38 23.381">
  <defs>
    <clipPath id="clip-path">
      <rect id="Rectangle_188" data-name="Rectangle 188" width="23.38" height="23.38" transform="translate(-14543.882 -23524.508)" fill="#fff" stroke="#707070" stroke-width="1" opacity="0.5"/>
    </clipPath>
  </defs>
  <g id="Mask_Group_25" data-name="Mask Group 25" transform="translate(14543.882 23524.508)" clip-path="url(#clip-path)">
    <g id="noun_sightseeing_2644558" transform="translate(-14555.797 -23533.539)" opacity="0.4">
      <path id="Path_1101" data-name="Path 1101" d="M33.07,31.135a.263.263,0,0,0,.263-.263V10.328a.263.263,0,0,0-.263-.263h-18a.263.263,0,0,0-.263.263V30.872a.263.263,0,0,0,.263.263Zm-17.74-.526V26.966H32.807v3.642ZM20.815,14.53h2.064a.263.263,0,0,0,.263-.263v-.972h1.882v.972a.263.263,0,0,0,.263.263h2.064a.263.263,0,0,0,.263-.263v-.972h1.809v5.688H18.713V13.295h1.839v.972A.263.263,0,0,0,20.815,14.53Zm-2.1,8.379h1.532a.263.263,0,0,0,0-.526H18.713V19.509H29.424v2.873H27.892a.263.263,0,0,0,0,.526h1.532V26.44H26.687V25.2H28.2a.263.263,0,0,0,0-.526H26.687V22.9a2.618,2.618,0,0,0-5.236,0v1.773H19.933a.263.263,0,0,0,0,.526H21.45V26.44H18.713ZM26.16,26.44H21.977V22.9a2.092,2.092,0,0,1,4.183,0Zm6.647-15.849V26.44H29.951V13.031a.263.263,0,0,0-.263-.263H27.352a.263.263,0,0,0-.263.263V14H25.551v-.972a.263.263,0,0,0-.263-.263H22.879a.263.263,0,0,0-.263.263V14H21.078v-.972a.263.263,0,0,0-.263-.263H18.45a.263.263,0,0,0-.263.263V26.44H15.33V10.591Z" transform="translate(0 0)" fill="#0a0a0a"/>
      <path id="Path_1102" data-name="Path 1102" d="M32.97,30.883v1.341a.263.263,0,0,0,.263.263h1.721a.263.263,0,0,0,.263-.263V30.883a1.124,1.124,0,0,0-2.247,0Zm.526,0a.6.6,0,0,1,1.194,0V31.96H33.5Z" transform="translate(-13.384 -14.514)" fill="#0a0a0a"/>
      <path id="Path_1103" data-name="Path 1103" d="M45.995,32.487h1.721a.263.263,0,0,0,.263-.263V30.883a1.124,1.124,0,0,0-2.247,0v1.341A.263.263,0,0,0,45.995,32.487Zm.263-1.6a.6.6,0,0,1,1.194,0V31.96H46.258Z" transform="translate(-22.786 -14.514)" fill="#0a0a0a"/>
      <path id="Path_1104" data-name="Path 1104" d="M58.756,32.487h1.721a.263.263,0,0,0,.263-.263V30.883a1.124,1.124,0,0,0-2.247,0v1.341A.263.263,0,0,0,58.756,32.487Zm.263-1.6a.6.6,0,0,1,1.194,0V31.96H59.02Z" transform="translate(-32.189 -14.514)" fill="#0a0a0a"/>
      <path id="Path_1105" data-name="Path 1105" d="M34.773,50.13a.263.263,0,0,0-.263-.263H32.8a.263.263,0,1,0,0,.526H34.51A.263.263,0,0,0,34.773,50.13Z" transform="translate(-13.066 -29.325)" fill="#0a0a0a"/>
      <path id="Path_1106" data-name="Path 1106" d="M58.788,50.394H60.5a.263.263,0,0,0,0-.526H58.788a.263.263,0,1,0,0,.526Z" transform="translate(-32.212 -29.325)" fill="#0a0a0a"/>
    </g>
  </g>
</svg>
