<svg xmlns="http://www.w3.org/2000/svg" width="25.27" height="25.269" viewBox="0 0 25.27 25.269">
  <path id="Icon_awesome-facebook-messenger" data-name="Icon awesome-facebook-messenger" d="M13.226.563C6.091.563.563,5.776.563,12.819A11.979,11.979,0,0,0,4.54,21.885c.425.383.338.6.41,2.967a1.015,1.015,0,0,0,1.42.9c2.7-1.187,2.73-1.281,3.187-1.157,7.81,2.149,16.275-2.848,16.275-11.771C25.833,5.776,20.36.563,13.226.563Zm7.6,9.432L17.11,15.882a1.9,1.9,0,0,1-2.747.506L11.4,14.174a.764.764,0,0,0-.917,0L6.494,17.2a.6.6,0,0,1-.872-.8l3.719-5.888a1.9,1.9,0,0,1,2.747-.506l2.958,2.214a.764.764,0,0,0,.917,0L19.958,9.2a.6.6,0,0,1,.871.8Z" transform="translate(-0.563 -0.563)" fill="#0070f2"/>
</svg>
