<svg xmlns="http://www.w3.org/2000/svg" width="10.573" height="10.571" viewBox="0 0 10.573 10.571">
  <path id="Icon_awesome-instagram" data-name="Icon awesome-instagram" d="M5.282,4.813a2.71,2.71,0,1,0,2.71,2.71A2.706,2.706,0,0,0,5.282,4.813Zm0,4.472A1.762,1.762,0,1,1,7.044,7.523,1.765,1.765,0,0,1,5.282,9.285ZM8.736,4.7A.632.632,0,1,1,8.1,4.07.631.631,0,0,1,8.736,4.7Zm1.8.642a3.128,3.128,0,0,0-.854-2.215,3.149,3.149,0,0,0-2.215-.854c-.873-.05-3.489-.05-4.361,0a3.144,3.144,0,0,0-2.215.852A3.139,3.139,0,0,0,.032,5.341c-.05.873-.05,3.489,0,4.361a3.128,3.128,0,0,0,.854,2.215,3.153,3.153,0,0,0,2.215.854c.873.05,3.489.05,4.361,0a3.128,3.128,0,0,0,2.215-.854A3.149,3.149,0,0,0,10.531,9.7c.05-.873.05-3.486,0-4.359ZM9.4,10.639a1.784,1.784,0,0,1-1,1,11.65,11.65,0,0,1-3.116.212,11.741,11.741,0,0,1-3.116-.212,1.784,1.784,0,0,1-1-1A11.65,11.65,0,0,1,.949,7.523a11.741,11.741,0,0,1,.212-3.116,1.784,1.784,0,0,1,1-1A11.65,11.65,0,0,1,5.282,3.19,11.741,11.741,0,0,1,8.4,3.4a1.784,1.784,0,0,1,1,1,11.65,11.65,0,0,1,.212,3.116A11.643,11.643,0,0,1,9.4,10.639Z" transform="translate(0.005 -2.237)" fill="#fff"/>
</svg>
