<svg xmlns="http://www.w3.org/2000/svg" width="45.03" height="29.503" viewBox="0 0 45.03 29.503">
  <g id="turkey" transform="translate(0 -88.275)">
    <path id="Path_991" data-name="Path 991" d="M41.658,88.275H3.372A3.372,3.372,0,0,0,0,91.647v22.758a3.372,3.372,0,0,0,3.372,3.372H41.658a3.372,3.372,0,0,0,3.372-3.372V91.647A3.372,3.372,0,0,0,41.658,88.275Z" transform="translate(0)" fill="#ff4b55"/>
    <g id="Group_613" data-name="Group 613" transform="translate(5.862 95.262)">
      <path id="Path_992" data-name="Path 992" d="M231.081,225.274l1.217,1.592,1.9-.636a.117.117,0,0,1,.133.177l-1.138,1.649,1.192,1.611a.117.117,0,0,1-.127.181l-1.92-.573-1.163,1.631a.117.117,0,0,1-.212-.065l-.049-2-1.911-.6a.117.117,0,0,1,0-.221l1.89-.665-.018-2A.117.117,0,0,1,231.081,225.274Z" transform="translate(-214.65 -220.171)" fill="#f5f5f5"/>
      <path id="Path_993" data-name="Path 993" d="M76.349,181.7a6.215,6.215,0,0,1,0-12.429,6.094,6.094,0,0,1,3.433,1.057.15.15,0,0,0,.2-.226,7.7,7.7,0,0,0-5.84-2.375,7.764,7.764,0,0,0,.27,15.523,7.7,7.7,0,0,0,5.575-2.384.149.149,0,0,0-.2-.223A6.1,6.1,0,0,1,76.349,181.7Z" transform="translate(-66.648 -167.723)" fill="#f5f5f5"/>
    </g>
  </g>
</svg>
