<svg xmlns="http://www.w3.org/2000/svg" width="45.026" height="29.5" viewBox="0 0 45.026 29.5">
  <g id="united-kingdom" transform="translate(0 -88.275)">
    <path id="Path_979" data-name="Path 979" d="M41.654,88.276H3.372A3.372,3.372,0,0,0,0,91.648V114.4a3.372,3.372,0,0,0,3.372,3.372H41.654a3.372,3.372,0,0,0,3.372-3.372V91.648A3.372,3.372,0,0,0,41.654,88.276Z" transform="translate(0 -0.001)" fill="#41479b"/>
    <path id="Path_980" data-name="Path 980" d="M44.979,91.09a3.373,3.373,0,0,0-3.325-2.815h-.877L26.395,97.7V88.275H18.631V97.7L4.25,88.275H3.372A3.372,3.372,0,0,0,.047,91.09l12.292,8.054H0v7.763H12.339L.047,114.96a3.373,3.373,0,0,0,3.325,2.815H4.25l14.382-9.423v9.423h7.763v-9.423l14.382,9.423h.877a3.372,3.372,0,0,0,3.325-2.815l-12.292-8.054H45.026V99.143H32.687Z" fill="#f5f5f5"/>
    <g id="Group_612" data-name="Group 612" transform="translate(0 88.275)">
      <path id="Path_981" data-name="Path 981" d="M24.842,88.276H20.184V100.7H0v4.658H20.184v12.421h4.658V105.355H45.026V100.7H24.842Z" transform="translate(0 -88.276)" fill="#ff4b55"/>
      <path id="Path_982" data-name="Path 982" d="M10.593,310.789,27,300.138H24.15L9.224,309.827A3.376,3.376,0,0,0,10.593,310.789Z" transform="translate(-8.413 -281.507)" fill="#ff4b55"/>
      <path id="Path_983" data-name="Path 983" d="M316.812,300.138H313.96l15.892,10.316a3.387,3.387,0,0,0,1.081-1.15Z" transform="translate(-286.35 -281.507)" fill="#ff4b55"/>
      <path id="Path_984" data-name="Path 984" d="M4.049,97.041l13.871,9h2.852L5.054,95.842A3.386,3.386,0,0,0,4.049,97.041Z" transform="translate(-3.693 -95.177)" fill="#ff4b55"/>
      <path id="Path_985" data-name="Path 985" d="M302.99,101.289l14.953-9.707a3.377,3.377,0,0,0-1.381-.955l-16.424,10.662Z" transform="translate(-273.743 -90.42)" fill="#ff4b55"/>
    </g>
  </g>
</svg>
