<svg xmlns="http://www.w3.org/2000/svg" xmlns:xlink="http://www.w3.org/1999/xlink" width="25.465" height="15.219" viewBox="0 0 25.465 15.219">
  <defs>
    <clipPath id="clip-path">
      <rect id="Rectangle_25" data-name="Rectangle 25" width="9.131" height="15.219" transform="translate(0)" fill="#00b2e3" stroke="#707070" stroke-width="1"/>
    </clipPath>
  </defs>
  <g id="Group_897" data-name="Group 897" transform="translate(-326.535 -30)">
    <path id="Path_34" data-name="Path 34" d="M10,980.362v3.421a3.421,3.421,0,1,1,0,6.841v3.421H26.482v-2.488h1.244v2.488h7.153v-3.421a3.421,3.421,0,1,1,0-6.841v-3.421H27.726v2.488H26.482v-2.488Zm9.951,2.488,1.166,2.9,3.188.194-2.459,1.983.8,3.012-2.692-1.671-2.692,1.671.8-3.012L15.6,985.94l3.188-.194Zm6.531,1.244h1.244v2.488H26.482Zm0,3.732h1.244v2.488H26.482Z" transform="translate(316.535 -949.413)" fill="#f0034e"/>
    <g id="Mask_Group_6" data-name="Mask Group 6" transform="translate(342.869 30)" clip-path="url(#clip-path)">
      <path id="Path_39" data-name="Path 39" d="M10,980.362v3.421a3.421,3.421,0,1,1,0,6.841v3.421H26.482v-2.488h1.244v2.488h7.153v-3.421a3.421,3.421,0,1,1,0-6.841v-3.421H27.726v2.488H26.482v-2.488Zm9.951,2.488,1.166,2.9,3.188.194-2.459,1.983.8,3.012-2.692-1.671-2.692,1.671.8-3.012L15.6,985.94l3.188-.194Zm6.531,1.244h1.244v2.488H26.482Zm0,3.732h1.244v2.488H26.482Z" transform="translate(-26.333 -979.413)" fill="#00b2e3"/>
    </g>
  </g>
</svg>
