<svg xmlns="http://www.w3.org/2000/svg" xmlns:xlink="http://www.w3.org/1999/xlink" width="122.752" height="20" viewBox="0 0 122.752 20">
  <defs>
    <clipPath id="clip-path">
      <rect id="Rectangle_108" data-name="Rectangle 108" width="14" height="20" transform="translate(238 3100)" fill="#f0034e" stroke="#707070" stroke-width="1"/>
    </clipPath>
  </defs>
  <g id="Group_671" data-name="Group 671" transform="translate(-133.125 -3100)">
    <path id="Icon_ionic-md-heart" data-name="Icon ionic-md-heart" d="M10.751,18.117l-1.07-.965c-3.8-3.488-6.306-5.751-6.306-8.571A4.011,4.011,0,0,1,7.432,4.5a4.363,4.363,0,0,1,3.319,1.558A4.363,4.363,0,0,1,14.07,4.5a4.011,4.011,0,0,1,4.057,4.081c0,2.82-2.508,5.083-6.306,8.571Z" transform="translate(129.75 3097.383)" fill="#fe5111"/>
    <path id="Icon_ionic-md-heart-2" data-name="Icon ionic-md-heart" d="M10.751,18.117l-1.07-.965c-3.8-3.488-6.306-5.751-6.306-8.571A4.011,4.011,0,0,1,7.432,4.5a4.363,4.363,0,0,1,3.319,1.558A4.363,4.363,0,0,1,14.07,4.5a4.011,4.011,0,0,1,4.057,4.081c0,2.82-2.508,5.083-6.306,8.571Z" transform="translate(156.75 3097.383)" fill="#fe5111"/>
    <path id="Icon_ionic-md-heart-3" data-name="Icon ionic-md-heart" d="M10.751,18.117l-1.07-.965c-3.8-3.488-6.306-5.751-6.306-8.571A4.011,4.011,0,0,1,7.432,4.5a4.363,4.363,0,0,1,3.319,1.558A4.363,4.363,0,0,1,14.07,4.5a4.011,4.011,0,0,1,4.057,4.081c0,2.82-2.508,5.083-6.306,8.571Z" transform="translate(183.75 3097.383)" fill="#fe5111"/>
    <path id="Icon_ionic-md-heart-4" data-name="Icon ionic-md-heart" d="M10.751,18.117l-1.07-.965c-3.8-3.488-6.306-5.751-6.306-8.571A4.011,4.011,0,0,1,7.432,4.5a4.363,4.363,0,0,1,3.319,1.558A4.363,4.363,0,0,1,14.07,4.5a4.011,4.011,0,0,1,4.057,4.081c0,2.82-2.508,5.083-6.306,8.571Z" transform="translate(210.75 3097.383)" fill="#fe5111"/>
    <path id="Icon_ionic-md-heart-5" data-name="Icon ionic-md-heart" d="M10.751,18.117l-1.07-.965c-3.8-3.488-6.306-5.751-6.306-8.571A4.011,4.011,0,0,1,7.432,4.5a4.363,4.363,0,0,1,3.319,1.558A4.363,4.363,0,0,1,14.07,4.5a4.011,4.011,0,0,1,4.057,4.081c0,2.82-2.508,5.083-6.306,8.571Z" transform="translate(237.75 3097.383)" fill="#b7b7b7"/>
    <g id="Mask_Group_14" data-name="Mask Group 14" clip-path="url(#clip-path)">
      <path id="Icon_ionic-md-heart-6" data-name="Icon ionic-md-heart" d="M10.751,18.117l-1.07-.965c-3.8-3.488-6.306-5.751-6.306-8.571A4.011,4.011,0,0,1,7.432,4.5a4.363,4.363,0,0,1,3.319,1.558A4.363,4.363,0,0,1,14.07,4.5a4.011,4.011,0,0,1,4.057,4.081c0,2.82-2.508,5.083-6.306,8.571Z" transform="translate(237.75 3097.383)" fill="#fe5111"/>
    </g>
  </g>
</svg>
