<svg id="ebook_1_" data-name="ebook (1)" xmlns="http://www.w3.org/2000/svg" width="49.371" height="53.105" viewBox="0 0 49.371 53.105">
  <path id="Path_1020" data-name="Path 1020" d="M40.751,361.127H4.053c-2.606,0-3.973,6.033-4.053,7.866,0,.085.009.267,0,.34a3.729,3.729,0,0,0,4.053,3.556H40.8a4.242,4.242,0,0,0,4.156-4.334V356.789A4.287,4.287,0,0,1,40.751,361.127Zm0,0" transform="translate(0 -319.782)" fill="#fff" fill-rule="evenodd"/>
  <path id="Path_1021" data-name="Path 1021" d="M7.588,45.907l3.2-22.546-3.2-23C4.212.361.318-.06,0,4.914V49.526a3.778,3.778,0,0,1,4.053-3.619Zm0,0" transform="translate(0 -0.316)" fill="#fec711" fill-rule="evenodd"/>
  <path id="Path_1022" data-name="Path 1022" d="M4.065,405.264h36.7a4.28,4.28,0,0,0,4.2-4.007l0-3.5A4.29,4.29,0,0,1,40.8,402.1H4.053A3.778,3.778,0,0,0,0,405.715v.34a3.794,3.794,0,0,0,.341,1.423A3.846,3.846,0,0,1,4.065,405.264Zm0,0" transform="translate(0 -356.505)" fill="#c4cccf" fill-rule="evenodd"/>
  <path id="Path_1023" data-name="Path 1023" d="M73.156.045V45.591h33.161a4.286,4.286,0,0,0,4.208-4.334l.015-36.922A4.284,4.284,0,0,0,106.331,0Zm0,0" transform="translate(-65.568)" fill="#f0034e" fill-rule="evenodd"/>
  <path id="Path_1025" data-name="Path 1025" d="M130.473,59.105H161.5a2.582,2.582,0,0,1,2.535,2.611V74.229a2.582,2.582,0,0,1-2.535,2.611H130.473a2.582,2.582,0,0,1-2.536-2.611V61.716A2.582,2.582,0,0,1,130.473,59.105Zm0,0" transform="translate(-114.668 -52.975)" fill="#eceff1" fill-rule="evenodd"/>
  <path id="Path_1026" data-name="Path 1026" d="M421.965,61.716V74.229a2.58,2.58,0,0,1-2.535,2.611h3.332a2.582,2.582,0,0,0,2.535-2.611V61.716a2.582,2.582,0,0,0-2.535-2.611H419.43A2.58,2.58,0,0,1,421.965,61.716Zm0,0" transform="translate(-375.926 -52.975)" fill="#c4cccf" fill-rule="evenodd"/>
  <text id="GUIDE" transform="translate(30 17.449)" font-size="8" font-family="Mont-Bold, Mont" font-weight="700"><tspan x="-12.532" y="0">GUIDE</tspan></text>
</svg>
