<svg xmlns="http://www.w3.org/2000/svg" width="53.614" height="54.656" viewBox="0 0 53.614 54.656">
  <g id="tag" transform="matrix(0.978, -0.208, 0.208, 0.978, -0.183, 9.581)">
    <path id="Path_998" data-name="Path 998" d="M45.083,28.1,42.028,15.879a4.095,4.095,0,0,0-2.94-2.94L26.868,9.884a4.068,4.068,0,0,0-3.857,1.069L1.189,32.776a4.045,4.045,0,0,0,0,5.728L16.463,53.778a4.045,4.045,0,0,0,5.728,0L44.014,31.955A4.068,4.068,0,0,0,45.083,28.1ZM29.828,25.139a4.05,4.05,0,1,1,5.728,0A4.045,4.045,0,0,1,29.828,25.139Z" transform="translate(0 -8.885)" fill="#f0034e"/>
    <path id="Path_1000" data-name="Path 1000" d="M170.936,174.349a4.05,4.05,0,1,1,5.728,0A4.055,4.055,0,0,1,170.936,174.349Zm3.819-3.819a1.35,1.35,0,1,0,0,1.909A1.351,1.351,0,0,0,174.754,170.531Z" transform="translate(-154.473 -152.367)" fill="#ffe470"/>
    <path id="Path_1001" data-name="Path 1001" d="M192.149,322.842a4.05,4.05,0,1,1,5.728,0A4.055,4.055,0,0,1,192.149,322.842Zm3.818-3.819a1.35,1.35,0,1,0,0,1.909A1.351,1.351,0,0,0,195.967,319.023Z" transform="translate(-173.777 -287.495)" fill="#ffd400"/>
    <path id="Path_1002" data-name="Path 1002" d="M133.592,263.772l-10.272,1.145-6.912.764a1.29,1.29,0,0,1-1.107-.382,1.378,1.378,0,0,1-.382-.8,1.338,1.338,0,0,1,1.184-1.489l10.272-1.145,6.912-.764a1.345,1.345,0,0,1,.306,2.673Z" transform="translate(-104.567 -237.589)" fill="#ffe470"/>
    <path id="Path_1003" data-name="Path 1003" d="M218.639,263.771l-10.272,1.145,3.055-3.055,6.912-.764a1.345,1.345,0,1,1,.305,2.673Z" transform="translate(-189.613 -237.588)" fill="#ffd400"/>
    <path id="Path_1004" data-name="Path 1004" d="M381.811,2.31,371.685,12.436a1.35,1.35,0,1,1-1.909-1.909L379.9.4a1.337,1.337,0,0,1,1.909,0A1.337,1.337,0,0,1,381.811,2.31Z" transform="translate(-336.13 0)" fill="#3e5959"/>
    <path id="Path_1005" data-name="Path 1005" d="M373.829,16.49,385.864,4.455a1.337,1.337,0,0,1,0,1.909L375.738,16.49A1.337,1.337,0,0,1,373.829,16.49Z" transform="translate(-340.183 -4.054)" fill="#384949"/>
  </g>
</svg>
