<svg xmlns="http://www.w3.org/2000/svg" width="312.841" height="53.947" viewBox="0 0 312.841 53.947">
  <g id="Group_1230" data-name="Group 1230" transform="translate(-38.197 -711.122)">
    <path id="Path_1092" data-name="Path 1092" d="M-128.354-39.9a20.94,20.94,0,0,0-11.129,3.312l3.272-16.293h-10.008L-156.8,0h7.419l2.2-4.01a15.18,15.18,0,0,0,11.868,5.079A23.826,23.826,0,0,0-111.352-22.8C-111.352-32.606-118.007-39.9-128.354-39.9Zm-6.234,31.5c-5.455,0-9.12-3.469-9.12-8.574,0-7.174,6-13.517,13.054-13.517,5.455,0,9.1,3.428,9.1,8.554C-121.556-14.756-127.579-8.394-134.589-8.394Zm67.515-8.146a20.535,20.535,0,0,0,.915-6.232A16.736,16.736,0,0,0-83.385-39.949c-13.606,0-23.37,10.8-23.37,23.781,0,9.72,6.84,17.238,16.848,17.238,9.368,0,17.112-5.059,21.608-13.739H-79.048a11.939,11.939,0,0,1-9.669,4.788c-5.435,0-8.523-2.842-8.523-8.153q0-.253.007-.505ZM-84.136-31.347c5.011,0,8.065,2.743,8.549,7.764H-95.554c2.125-4.469,6.147-7.764,11.419-7.764ZM-44.527,1.069c10.058,0,18.4-5.944,22.164-16.143H-32.453c-2.595,4.291-6.466,6.731-10.882,6.731-4.993,0-8.267-3.448-8.267-8.533,0-7,5.766-13.661,12.53-13.661a8.042,8.042,0,0,1,8.3,6.31h9.967c-.351-8.927-7.1-15.723-17.022-15.723A23.879,23.879,0,0,0-61.754-16.322C-61.754-6.5-54.781,1.069-44.527,1.069ZM21.092-38.88l-2.238,4.712A15.89,15.89,0,0,0,6.173-39.949a23.594,23.594,0,0,0-23.6,23.679c0,9.925,7.024,17.34,17.33,17.34a21.8,21.8,0,0,0,13.509-4.68L13.663,0h7.42L28.86-38.88ZM1.8-8.394c-5.456,0-9.018-3.4-9.018-8.574,0-7.206,6.075-13.568,13.054-13.568,5.476,0,9.12,3.428,9.12,8.605C14.954-14.756,8.829-8.394,1.8-8.394ZM49.361,1.069c10.943,0,18.8-6.377,20.888-16.869l4.608-23.08H64.849L60.7-18.049c-1.132,5.662-4.992,9.706-10.1,9.706-4.262,0-6.661-2.019-6.661-6.065,0-1.883.462-3.558,4.628-24.471H38.563C34.3-17.978,33.77-16.126,33.77-13.175c.041,8.433,6.037,14.244,15.591,14.244Zm41.306,0c10.4,0,18.532-5.461,18.532-15.231,0-7.056-6.593-8.352-11.994-9.34-3.848-.72-7.122-1.358-7.122-3.859,0-2.7,2.76-4.551,6.54-4.551,3.42,0,5.4,1.389,5.4,3.909a6.533,6.533,0,0,1-.084.94h9.392a11.234,11.234,0,0,0,.216-2.129c0-6.151-5.277-10.757-13.627-10.757C87.995-39.949,80.2-34.7,80.2-25.418c0,7,6.438,8.269,11.819,9.277,3.818.69,7.1,1.369,7.1,3.933,0,3.2-3.438,4.923-6.911,4.923-3.343,0-5.885-1.483-5.885-4.411a6.413,6.413,0,0,1,.1-1.014H76.762a13.257,13.257,0,0,0-.216,2.376c0,6.962,5.934,11.4,14.121,11.4Zm64.451-17.61a20.535,20.535,0,0,0,.915-6.232,16.736,16.736,0,0,0-17.227-17.176c-13.606,0-23.37,10.8-23.37,23.781,0,9.72,6.84,17.238,16.848,17.238,9.368,0,17.112-5.059,21.608-13.739H143.144a11.939,11.939,0,0,1-9.669,4.788c-5.435,0-8.523-2.842-8.523-8.153q0-.253.007-.505ZM138.056-31.347c5.011,0,8.065,2.743,8.549,7.764H126.638c2.125-4.469,6.147-7.764,11.419-7.764Z" transform="translate(195 764)" fill="#e8e8e8"/>
    <path id="Path_1093" data-name="Path 1093" d="M-30.306-9.42a4.944,4.944,0,0,0-2.628.782l.773-3.847h-2.363L-37.023,0h1.752l.519-.947a3.584,3.584,0,0,0,2.8,1.2,5.626,5.626,0,0,0,5.658-5.637A3.841,3.841,0,0,0-30.306-9.42Zm-1.472,7.438a1.983,1.983,0,0,1-2.153-2.025A3.209,3.209,0,0,1-30.849-7.2,1.973,1.973,0,0,1-28.7-5.178,3.215,3.215,0,0,1-31.778-1.982Zm15.941-1.923a4.849,4.849,0,0,0,.216-1.472,3.952,3.952,0,0,0-4.067-4.056,5.486,5.486,0,0,0-5.518,5.615A3.9,3.9,0,0,0-21.228.252a5.631,5.631,0,0,0,5.1-3.244h-2.538a2.819,2.819,0,0,1-2.283,1.131A1.778,1.778,0,0,1-22.96-3.786q0-.06,0-.119Zm-4.028-3.5a1.852,1.852,0,0,1,2.018,1.833h-4.714a2.988,2.988,0,0,1,2.7-1.833ZM-10.513.252A5.479,5.479,0,0,0-5.28-3.559H-7.663A3,3,0,0,1-10.232-1.97a1.875,1.875,0,0,1-1.952-2.015A3.212,3.212,0,0,1-9.225-7.21,1.9,1.9,0,0,1-7.266-5.72h2.353A3.813,3.813,0,0,0-8.932-9.432a5.638,5.638,0,0,0-5.649,5.579A3.95,3.95,0,0,0-10.513.252ZM4.98-9.18,4.452-8.068A3.752,3.752,0,0,0,1.458-9.432,5.571,5.571,0,0,0-4.114-3.842,3.94,3.94,0,0,0-.022.252,5.147,5.147,0,0,0,3.168-.853L3.226,0H4.978L6.814-9.18ZM.424-1.982A1.954,1.954,0,0,1-1.7-4.007a3.226,3.226,0,0,1,3.082-3.2A1.977,1.977,0,0,1,3.531-5.178,3.237,3.237,0,0,1,.424-1.982ZM11.655.252A4.741,4.741,0,0,0,16.587-3.73l1.088-5.45H15.312l-.979,4.918A2.556,2.556,0,0,1,11.948-1.97c-1.006,0-1.573-.477-1.573-1.432A57.574,57.574,0,0,1,11.468-9.18H9.105C8.1-4.245,7.974-3.807,7.974-3.111,7.983-1.119,9.4.252,11.655.252Zm9.753,0c2.455,0,4.376-1.289,4.376-3.6,0-1.666-1.557-1.972-2.832-2.205-.909-.17-1.681-.321-1.681-.911,0-.637.652-1.075,1.544-1.075.807,0,1.274.328,1.274.923a1.542,1.542,0,0,1-.02.222h2.217a2.653,2.653,0,0,0,.051-.5c0-1.452-1.246-2.54-3.217-2.54-2.343,0-4.184,1.238-4.184,3.431,0,1.654,1.52,1.952,2.791,2.19.9.163,1.677.323,1.677.929,0,.756-.812,1.162-1.632,1.162-.789,0-1.39-.35-1.39-1.041A1.514,1.514,0,0,1,20.4-3H18.124a3.13,3.13,0,0,0-.051.561c0,1.644,1.4,2.693,3.334,2.693ZM36.625-3.905a4.849,4.849,0,0,0,.216-1.472,3.952,3.952,0,0,0-4.067-4.056,5.486,5.486,0,0,0-5.518,5.615A3.9,3.9,0,0,0,31.234.252a5.631,5.631,0,0,0,5.1-3.244H33.8a2.819,2.819,0,0,1-2.283,1.131A1.778,1.778,0,0,1,29.5-3.786q0-.06,0-.119ZM32.6-7.4a1.852,1.852,0,0,1,2.018,1.833H29.9A2.988,2.988,0,0,1,32.6-7.4Z" transform="translate(195 748)" fill="#f0034e"/>
  </g>
</svg>
