<?xml version="1.0" ?><!DOCTYPE svg  PUBLIC '-//W3C//DTD SVG 1.1//EN'  'http://www.w3.org/Graphics/SVG/1.1/DTD/svg11.dtd'><svg height="56px" id="Layer_1" style="enable-background:new 0 0 64 56;" version="1.1" viewBox="0 0 64 56" width="64px" xml:space="preserve" xmlns="http://www.w3.org/2000/svg" xmlns:xlink="http://www.w3.org/1999/xlink"><g id="Heart_2_"><g><path d="M64,17c0-9.389-7.611-17-17-17    c-6.497,0-12.139,3.647-15,9.004C29.139,3.647,23.497,0,17,0C7.611,0,0,7.611,0,17c0,5.208,2.348,9.863,6.037,12.982L6,29.999    c0,0,21.609,23.115,23.171,24.765c1.563,1.648,4.095,1.648,5.657,0C36.391,53.114,58,29.999,58,29.999l-0.037-0.017    C61.652,26.863,64,22.208,64,17z" style="fill-rule:evenodd;clip-rule:evenodd;fill:#ED7161;"/></g></g><g/><g/><g/><g/><g/><g/><g/><g/><g/><g/><g/><g/><g/><g/><g/></svg>